<?xml version="1.0" encoding="utf-8"?>
<!-- Generator: Adobe Illustrator 21.1.0, SVG Export Plug-In . SVG Version: 6.00 Build 0)  -->
<svg version="1.1" id="svg1" xmlns="http://www.w3.org/2000/svg" xmlnsXlink="http://www.w3.org/1999/xlink" x="0px" y="0px"
	 viewBox="0 0 920.9 645.3" style="enable-background:new 0 0 920.9 645.3;" xml:space="preserve">
<style type="text/css">
	.st0{display:none;}
	.st1{display:inline;fill:#3498DB;}
	.st2{fill:#586273;}
	.st3{opacity:0.8;fill:#BCBCBC;enable-background:new    ;}
	.st4{fill:#E6E9ED;}
	.st5{opacity:0.3;fill:#B7BFC7;enable-background:new    ;}
	.st6{fill:#DCE4E8;}
	.st7{display:none;fill:url(#mbplight_1_);}
	.st8{fill:#CCD1D9;}
	.st9{display:none;fill:#F5F7FA;stroke:#CCD1D9;stroke-miterlimit:10;}
	.st10{fill:#3B3B3B;stroke:#C1C1C1;stroke-miterlimit:10;}
	.st11{fill:#E74C3C;}
	.st12{fill:#D8D8DA;}
	.st13{fill:#AAB2BD;}
	.st14{fill:#FFFFFF;}
	.st15{fill:#E6E7E8;}
	.st16{fill:#49433C;}
	.st17{fill:#363532;}
	.st18{fill:#434A54;}
	.st19{fill:#F7F9F8;}
	.st20{fill:#44C650;}
	.st21{fill:none;}
	.st22{display:none;opacity:0.8;fill:#2980B9;enable-background:new    ;}
	.st23{display:none;fill:#2980B9;}
	.st24{fill:#58585C;}
	.st25{fill:#464E5C;}
	.st26{fill:#F7D39A;}
	.st27{fill:#FF3300;}
	.st28{opacity:0.8;}
	.st29{fill:#BCBCBC;}
	.st30{fill:#EBF4FF;}
	.st31{fill:#30BCED;}
	.st32{fill:#E5E5E5;}
	.st33{fill:#B7BFC7;}
	.st34{opacity:0.3;}
	.st35{fill:#EFEEEE;}
	.st36{fill:#656D78;}
	.st37{fill:#2C3E50;}
	.st38{fill:#ECF0F1;}
</style>
<g id="bg" class="st0">
	<rect x="-7179.9" y="-5325.3" class="st1" width="16291.8" height="14784"/>
</g>
<g id="introduction" inkscape:version="0.48.4 r9939" sodipodi:docname="drawing.svg" xmlns:cc="http://creativecommons.org/ns#" xmlns:dc="http://purl.org/dc/elements/1.1/" xmlns:inkscape="http://www.inkscape.org/namespaces/inkscape" xmlns:rdf="http://www.w3.org/1999/02/22-rdf-syntax-ns#" xmlns:sodipodi="http://sodipodi.sourceforge.net/DTD/sodipodi-0.dtd" xmlns:svg="http://www.w3.org/2000/svg">
	<g id="macbook">
		<path class="st2" d="M767.7,473.8L767.7,473.8C767.7,473.9,767.7,473.8,767.7,473.8z"/>
		<path class="st3" d="M798.6,446.4L456.4,290.6c0,0-8.2-3.7-11.9,4.5c-3.7,8.2,4.5,11.9,4.5,11.9l24.6,11.2c0,0-8.2-3.7-11.9,4.5
			c-4.7,10.3-4.7,10.2-77.5,170.2c-3.9,8.5,0.8,19,9.3,22.9l277.6,126.4c8.5,3.9,18.6,0.1,22.5-8.4c0,0,59.1-129.8,74.2-162.9l0,0
			c0.1-0.2,0.6-1.3,3.3-7.3c3.7-8.2-4.5-11.9-4.5-11.9l24.6,11.2c0,0,8.2,3.7,11.9-4.5C806.8,450.2,798.6,446.4,798.6,446.4z"/>
		<g>
			<path class="st4" d="M699.5,631.7c-3.9,8.5-14,12.3-22.5,8.4L399.4,513.7c-8.5-3.9-13.2-14.4-9.3-22.9c0,0,73.8-162,77.5-170.2
				c3.7-8.2,11.9-4.5,11.9-4.5l293,133.5c0,0,8.2,3.7,4.5,11.9C773.3,469.7,699.5,631.7,699.5,631.7z"/>
			<path class="st5" d="M773.7,468.8l-364.2-20.6c0,0,54.4-119.4,58.1-127.6c3.7-8.2,11.9-4.5,11.9-4.5l293,133.5
				c0,0,8.2,3.7,4.5,11.9C773.3,469.7,773.7,468.8,773.7,468.8z"/>
			
				<rect x="619.7" y="306.1" transform="matrix(0.4145 -0.91 0.91 0.4145 13.2398 794.6853)" class="st6" width="9" height="161.9"/>
			
				<radialGradient id="mbplight_1_" cx="1833.446" cy="-13273.375" r="163.2177" gradientTransform="matrix(0.9118 0.4011 9.550000e-02 -0.1842 211.9862 -2795.1716)" gradientUnits="userSpaceOnUse">
				<stop  offset="0.103" style="stop-color:#3498DB;stop-opacity:0.4"/>
				<stop  offset="0.7955" style="stop-color:#3498DB;stop-opacity:5.650000e-02"/>
				<stop  offset="0.9095" style="stop-color:#3498DB;stop-opacity:0"/>
			</radialGradient>
			<polygon id="mbplight" class="st7" points="789.5,495.6 454.8,345.1 498.9,305.3 798,441.7 			"/>
			<path class="st8" d="M797.1,460.8L454.9,305c0,0-8.2-3.7-4.5-11.9c3.7-8.2,11.9-4.5,11.9-4.5l342.2,155.9c0,0,8.2,3.7,4.5,11.9
				C805.3,464.6,797.1,460.8,797.1,460.8z"/>
			
				<rect x="530" y="495.5" transform="matrix(0.4145 -0.91 0.91 0.4145 -169.4284 820.6047)" class="st9" width="46" height="92.9"/>
			<g>
				
					<rect x="503.7" y="363.7" transform="matrix(0.4145 -0.9101 0.9101 0.4145 -40.7456 682.1112)" class="st10" width="12" height="18"/>
				
					<rect x="492.2" y="383.3" transform="matrix(0.4145 -0.91 0.91 0.4145 -63.8292 685.375)" class="st10" width="17" height="18"/>
				
					<rect x="486.5" y="402.6" transform="matrix(0.4145 -0.91 0.91 0.4145 -89.6182 695.8627)" class="st10" width="19" height="30"/>
				
					<rect x="483.4" y="420.6" transform="matrix(0.4145 -0.9101 0.9101 0.4145 -114.3089 706.549)" class="st10" width="17" height="43"/>
				<rect x="514.7" y="393" transform="matrix(0.4145 -0.91 0.91 0.4145 -59.9837 711.7926)" class="st10" width="17" height="19"/>
				
					<rect x="514.2" y="420.8" transform="matrix(0.4145 -0.91 0.91 0.4145 -84.9696 728.5212)" class="st10" width="19" height="19"/>
				<rect x="517" y="448" transform="matrix(0.4145 -0.91 0.91 0.4145 -108.7334 746.0647)" class="st10" width="17" height="19"/>
				
					<rect x="538.5" y="458.2" transform="matrix(0.4145 -0.91 0.91 0.4145 -104.9468 771.356)" class="st10" width="17" height="18"/>
				
					<rect x="561.3" y="468.6" transform="matrix(0.4145 -0.9101 0.9101 0.4145 -100.954 798.2086)" class="st10" width="17" height="18"/>
				
					<rect x="583.1" y="478.7" transform="matrix(0.4145 -0.91 0.91 0.4145 -97.4332 823.8735)" class="st10" width="17" height="18"/>
				
					<rect x="605.9" y="488.9" transform="matrix(0.4145 -0.9101 0.9101 0.4145 -93.3341 850.7071)" class="st10" width="17" height="18"/>
				
					<rect x="627.3" y="498.1" transform="matrix(0.4145 -0.9101 0.9101 0.4145 -89.6259 875.8181)" class="st10" width="17" height="19"/>
				
					<rect x="660.9" y="501.5" transform="matrix(0.4145 -0.91 0.91 0.4145 -84.0225 915.3662)" class="st10" width="17" height="43"/>
				
					<rect x="536.5" y="431.4" transform="matrix(0.4145 -0.91 0.91 0.4145 -81.1476 754.7049)" class="st10" width="19" height="18"/>
				
					<rect x="558.8" y="441.2" transform="matrix(0.4145 -0.91 0.91 0.4145 -77.3874 781.0341)" class="st10" width="19" height="19"/>
				
					<rect x="581.1" y="451.7" transform="matrix(0.4144 -0.9101 0.9101 0.4144 -73.4376 807.3419)" class="st10" width="19" height="18"/>
				
					<rect x="603.4" y="461.4" transform="matrix(0.4145 -0.91 0.91 0.4145 -69.6952 833.4504)" class="st10" width="19" height="19"/>
				
					<rect x="625.8" y="472.1" transform="matrix(0.4145 -0.91 0.91 0.4145 -65.8459 859.8352)" class="st10" width="19" height="18"/>
				<rect x="648" y="481.7" transform="matrix(0.4145 -0.91 0.91 0.4145 -62.0392 885.9254)" class="st10" width="19" height="19"/>
				
					<rect x="675.8" y="488.8" transform="matrix(0.4145 -0.9101 0.9101 0.4145 -57.2948 918.6326)" class="st10" width="19" height="30"/>
				
					<rect x="537.4" y="403.4" transform="matrix(0.4145 -0.91 0.91 0.4145 -56.1407 738.4912)" class="st10" width="17" height="19"/>
				
					<rect x="558.8" y="413.7" transform="matrix(0.4145 -0.91 0.91 0.4145 -52.4984 763.7921)" class="st10" width="17" height="18"/>
				
					<rect x="581.7" y="423.9" transform="matrix(0.4145 -0.9101 0.9101 0.4145 -48.4438 790.5641)" class="st10" width="17" height="18"/>
				
					<rect x="603.5" y="434" transform="matrix(0.4145 -0.9101 0.9101 0.4145 -44.7697 816.3506)" class="st10" width="17" height="18"/>
				
					<rect x="626.2" y="444.4" transform="matrix(0.4144 -0.9101 0.9101 0.4144 -40.9711 843.1215)" class="st10" width="17" height="18"/>
				
					<rect x="647.5" y="453.4" transform="matrix(0.4145 -0.9101 0.9101 0.4145 -37.1697 868.0863)" class="st10" width="17" height="19"/>
				
					<rect x="681.2" y="456.8" transform="matrix(0.4145 -0.9101 0.9101 0.4145 -31.3999 907.7226)" class="st10" width="17" height="43"/>
				
					<rect x="461.2" y="449.8" transform="matrix(0.4145 -0.9101 0.9101 0.4145 -141.9402 696.9844)" class="st10" width="19" height="18"/>
				
					<rect x="483.3" y="459.5" transform="matrix(0.4145 -0.91 0.91 0.4145 -138.2626 723.0883)" class="st10" width="19" height="19"/>
				
					<rect id="spacebar" x="550.3" y="441.5" transform="matrix(0.4145 -0.91 0.91 0.4145 -126.7538 801.843)" class="st10" width="19" height="115.9"/>
				
					<rect x="616.3" y="519.9" transform="matrix(0.4145 -0.9101 0.9101 0.4145 -115.4051 879.494)" class="st10" width="19" height="19"/>
				
					<rect x="639.1" y="530.2" transform="matrix(0.4145 -0.9101 0.9101 0.4145 -111.4019 906.2213)" class="st10" width="19" height="19"/>
				
					<rect x="661.4" y="541" transform="matrix(0.4145 -0.9101 0.9101 0.4145 -107.6833 932.5663)" class="st10" width="19" height="18"/>
				
					<rect x="526.1" y="373.4" transform="matrix(0.4145 -0.91 0.91 0.4145 -36.9521 708.429)" class="st10" width="12" height="19"/>
				
					<rect x="548.8" y="383.7" transform="matrix(0.4145 -0.9101 0.9101 0.4145 -32.9346 735.1487)" class="st10" width="12" height="19"/>
				
					<rect x="570.2" y="394.1" transform="matrix(0.4145 -0.91 0.91 0.4145 -29.5066 760.4067)" class="st10" width="12" height="18"/>
				
					<rect x="592.9" y="404.6" transform="matrix(0.4145 -0.91 0.91 0.4145 -25.7085 787.1476)" class="st10" width="12" height="18"/>
				
					<rect x="615" y="414.3" transform="matrix(0.4145 -0.9101 0.9101 0.4145 -21.6663 812.9959)" class="st10" width="12" height="18"/>
				
					<rect x="637.5" y="424.7" transform="matrix(0.4145 -0.9101 0.9101 0.4145 -17.8969 839.5817)" class="st10" width="12" height="18"/>
				
					<rect x="659.1" y="433.9" transform="matrix(0.4145 -0.9101 0.9101 0.4145 -14.0752 864.8712)" class="st10" width="12" height="19"/>
				
					<rect x="681.6" y="444.4" transform="matrix(0.4145 -0.91 0.91 0.4145 -10.4632 891.4521)" class="st10" width="12" height="19"/>
				<rect x="704" y="455.1" transform="matrix(0.4146 -0.91 0.91 0.4146 -6.655 917.7653)" class="st10" width="12" height="18"/>
			</g>
		</g>
	</g>
	<g id="bevanda">
		<circle class="st3" cx="347.1" cy="354.6" r="50.6"/>
		<circle class="st4" cx="352.1" cy="352.6" r="50.6"/>
		<path class="st11" d="M352.1,310.9c23,0,41.7,18.7,41.7,41.7s-18.7,41.7-41.7,41.7c-10.4,0-19.9-3.8-27.1-10.1
			c-8.9-7.6-14.5-19-14.5-31.6C310.4,329.5,329,310.9,352.1,310.9z"/>
		<path id="linecover1" class="st4" d="M352.1,309.9c23.6,0,42.7,19.1,42.7,42.7s-19.1,42.7-42.7,42.7c-10.6,0-20.3-3.9-27.8-10.3
			c-9.1-7.8-14.9-19.4-14.9-32.4C309.4,329,328.5,309.9,352.1,309.9z"/>
		
			<ellipse transform="matrix(0.1184 -0.993 0.993 0.1184 -83.5514 674.988)" class="st12" cx="338.3" cy="384.5" rx="7.7" ry="11.6"/>
		<polygon class="st8" points="288.9,374.8 329.7,381.7 329.3,385.3 288,382.5 		"/>
		
			<ellipse transform="matrix(0.1184 -0.993 0.993 0.1184 -83.5456 674.9653)" class="st13" cx="338.3" cy="384.5" rx="6.4" ry="9.6"/>
		<path class="st14" d="M324.8,309.7l9.7,12.5c1.6,2.1,1.2,5-0.8,6.7c-2.1,1.6-5,1.2-6.6-0.8l-9.7-12.5c-1.6-2.1-1.2-5,0.8-6.7
			C320.2,307.3,323.2,307.7,324.8,309.7z"/>
		<circle class="st14" cx="352.1" cy="352.6" r="34.8"/>
		<circle class="st15" cx="352.1" cy="352.6" r="31.3"/>
		<circle class="st16" cx="352.1" cy="352.6" r="29.6"/>
		<path class="st17" d="M330.8,369.1c9.1,11.7,26,13.8,37.7,4.7c0.7-0.5,0.8-1.5,0.3-2.2s-1.5-0.8-2.2-0.3c-0.3,0.2-0.6,0.4-0.9,0.6
			c-0.1,0.1-0.1,0.1-0.2,0.2c-0.3,0.2-0.5,0.4-0.8,0.5c-0.1,0.1-0.2,0.1-0.3,0.2c-0.2,0.1-0.4,0.2-0.6,0.3c-0.1,0.1-0.3,0.1-0.4,0.2
			c-0.2,0.1-0.5,0.2-0.7,0.4c-0.2,0.1-0.4,0.2-0.5,0.3c-0.1,0.1-0.3,0.1-0.4,0.2c-0.2,0.1-0.3,0.2-0.5,0.2c-0.2,0.1-0.5,0.2-0.7,0.3
			c-0.2,0.1-0.3,0.1-0.5,0.2c-0.1,0.1-0.3,0.1-0.5,0.2c-0.1,0.1-0.3,0.1-0.4,0.1c-0.3,0.1-0.6,0.2-0.9,0.2c-0.1,0-0.2,0.1-0.3,0.1
			c-0.3,0.1-0.5,0.1-0.8,0.2c-0.1,0-0.2,0-0.2,0.1c-0.3,0.1-0.7,0.1-1,0.2c0,0,0,0-0.1,0c-0.2,0-0.4,0.1-0.6,0.1
			c-0.1,0-0.3,0-0.5,0.1h-0.1c-0.7,0.1-1.5,0.1-2.2,0.1l0,0c-0.7,0-1.5,0-2.2-0.1h-0.1c-0.3,0-0.7-0.1-1-0.1c0,0,0,0-0.1,0
			c-0.3,0-0.6-0.1-0.9-0.1c-0.1,0-0.3,0-0.4-0.1c-0.2,0-0.4-0.1-0.5-0.1c-0.6-0.1-1.3-0.3-1.9-0.5l0,0c-3.4-1-6.6-2.8-9.3-5.2
			c0,0,0,0-0.1,0c-0.1-0.1-0.3-0.3-0.4-0.4s-0.2-0.2-0.4-0.4c-0.1-0.1-0.2-0.2-0.4-0.4c-0.2-0.2-0.4-0.4-0.6-0.7
			c-0.1-0.1-0.1-0.2-0.2-0.2c-0.2-0.3-0.5-0.5-0.7-0.8s-0.4-0.6-0.6-0.9c-0.1-0.1-0.1-0.2-0.2-0.3c-0.2-0.2-0.3-0.5-0.5-0.7
			c-0.1-0.1-0.2-0.3-0.3-0.4c-0.1-0.1-0.2-0.3-0.3-0.4c-0.1-0.2-0.2-0.4-0.3-0.5c0,0,0,0,0-0.1c-1.7-3.2-2.6-6.7-2.8-10.3l0,0
			c0-0.7,0-1.3,0-2c0-0.2,0-0.4,0-0.5s0-0.3,0-0.4c0-0.3,0.1-0.6,0.1-1c0,0,0,0,0-0.1c0-0.3,0.1-0.7,0.1-1v-0.1
			c0.1-0.7,0.3-1.4,0.5-2.2l0,0c0.2-0.7,0.4-1.4,0.7-2.1c0,0,0,0,0-0.1c0.1-0.1,0.1-0.3,0.2-0.4c0.1-0.2,0.2-0.4,0.2-0.6
			c0,0,0,0,0-0.1c0.1-0.3,0.3-0.6,0.4-0.9c0-0.1,0.1-0.1,0.1-0.2c0.1-0.2,0.2-0.5,0.4-0.7c0.1-0.1,0.1-0.2,0.2-0.3
			c0.1-0.3,0.3-0.5,0.4-0.8c0.1-0.1,0.2-0.3,0.3-0.4c0.1-0.1,0.2-0.3,0.3-0.4c0.1-0.1,0.2-0.3,0.3-0.4c0.2-0.2,0.3-0.4,0.5-0.6
			c0.1-0.1,0.2-0.3,0.3-0.4c0.1-0.1,0.2-0.2,0.3-0.3c0.1-0.2,0.3-0.3,0.4-0.5c0.2-0.2,0.3-0.4,0.5-0.6c0.1-0.1,0.2-0.2,0.3-0.3
			c0.2-0.2,0.3-0.3,0.5-0.5c0.1-0.1,0.1-0.2,0.2-0.2c0.2-0.2,0.5-0.5,0.7-0.7c0.1-0.1,0.1-0.1,0.2-0.2c0.3-0.2,0.5-0.5,0.8-0.7
			c0.7-0.5,0.8-1.5,0.3-2.2s-1.5-0.8-2.2-0.3C323.9,340.4,321.8,357.4,330.8,369.1z"/>
		<path class="st17" d="M340.8,329.9c0.3,0.8,1.3,1.2,2.1,0.8c0.2-0.1,0.4-0.2,0.6-0.3h0.1l0,0c0.2-0.1,0.4-0.1,0.6-0.2l0,0
			c0.1,0,0.1,0,0.2-0.1l0,0c0.2-0.1,0.4-0.1,0.6-0.2l0,0l0,0l0,0c0.4-0.1,0.9-0.3,1.4-0.4c0.1,0,0.1,0,0.2,0
			c0.4-0.1,0.9-0.2,1.3-0.3c0.1,0,0.2,0,0.3-0.1c-0.1,0-0.1,0-0.2,0c0.1,0,0.1,0,0.2,0l0,0c0.1,0,0.3,0,0.4-0.1l0,0
			c0.1,0,0.1,0,0.1,0l0,0c-0.1,0-0.1,0-0.1,0c0.1,0,0.1,0,0.2,0c0.6-0.1,1.1,0.2,1.4,0.6c0.2,0.2,0.3,0.5,0.3,0.8
			c0.1,0.9-0.5,1.7-1.3,1.8l0,0l0,0c-1.3,0.2-2.6,0.5-3.9,0.9l0,0c0,0,0,0-0.1,0l0,0c-0.4,0.1-0.8,0.3-1.2,0.5
			c-0.8,0.4-1.1,1.3-0.8,2.1c0.3,0.8,1.3,1.2,2.1,0.8c2.2-0.9,4.5-1.4,6.9-1.4c0.1,0,0.1,0,0.2,0c0.2,0,0.3,0,0.5,0
			c0.1,0,0.2,0,0.3,0c0.1,0,0.3,0,0.5,0c0.1,0,0.2,0,0.3,0c0.1,0,0.2,0,0.3,0l0,0c0,0,0,0,0.1,0c0.4,0.1,0.7,0.3,0.9,0.6
			c0.2,0.3,0.4,0.7,0.3,1.2c-0.1,0.9-0.9,1.5-1.8,1.4c-2.5-0.3-5,0-7.2,1h-0.1c-0.8,0.3-1.2,1.3-0.8,2.1c0.3,0.8,1.3,1.2,2.1,0.8
			c4.6-1.9,10-0.5,13,3.4c3.1,4,3.1,9.5,0.1,13.5c-0.5,0.7-0.4,1.7,0.3,2.2c0.7,0.5,1.7,0.4,2.2-0.3l0.2-0.2
			c1.4-1.9,2.3-4.2,2.6-6.6c0.1-0.9,0.9-1.5,1.8-1.4c0.4,0.1,0.8,0.3,1.1,0.6c0.2,0.3,0.4,0.7,0.3,1.1c0,0,0,0,0,0.1l0,0
			c0,0.1,0,0.2-0.1,0.3c0,0.1,0,0.2,0,0.3c0,0.1-0.1,0.3-0.1,0.4s0,0.2-0.1,0.3c0,0.2-0.1,0.3-0.1,0.5c0,0.1,0,0.1,0,0.2
			c-0.6,2.3-1.6,4.4-3,6.3c-0.5,0.7-0.4,1.7,0.3,2.2c0.7,0.5,1.7,0.4,2.2-0.3c0.3-0.4,0.5-0.7,0.8-1.1l0,0c0,0,0,0,0-0.1l0,0
			c0.7-1.1,1.4-2.3,1.9-3.5l0,0l0,0c0.3-0.8,1.2-1.2,2.1-0.9c0.3,0.1,0.5,0.3,0.6,0.5c0.3,0.4,0.4,1,0.2,1.5c0,0.1,0,0.1-0.1,0.2
			c-0.1,0.2-0.2,0.4-0.3,0.6c0,0.1-0.1,0.2-0.1,0.3c-0.1,0.2-0.2,0.4-0.3,0.6c0,0.1-0.1,0.2-0.1,0.2c-0.1,0.2-0.2,0.4-0.3,0.6
			c0,0.1-0.1,0.1-0.1,0.2c-0.1,0.3-0.3,0.5-0.5,0.8l0,0l0,0c-0.1,0.2-0.3,0.4-0.4,0.6l-0.1,0.1l0,0c-0.1,0.1-0.1,0.2-0.2,0.3
			c-0.1,0.1-0.1,0.1-0.1,0.2c0,0,0,0-0.1,0.1c-0.1,0.2-0.3,0.4-0.4,0.6c-0.5,0.7-0.4,1.7,0.3,2.2c0.7,0.5,1.7,0.4,2.2-0.3
			c7.3-9.7,7.3-23.1-0.2-32.7c-7.4-9.6-20.5-13-31.6-8.3C340.8,328.2,340.5,329.1,340.8,329.9z M373.7,362.2c0,0.1-0.1,0.2-0.1,0.2
			C373.6,362.4,373.7,362.3,373.7,362.2z M373.3,363.1c0,0.1-0.1,0.1-0.1,0.2C373.2,363.3,373.3,363.2,373.3,363.1z M372.8,364
			l-0.1,0.1C372.8,364.1,372.8,364,372.8,364z M374,361.6c0,0,0-0.1,0.1-0.1C374,361.5,374,361.5,374,361.6L374,361.6z"/>
		<path class="st17" d="M370.9,366.9C370.9,366.9,371,366.9,370.9,366.9c0.2-0.2,0.3-0.4,0.4-0.6
			C371.2,366.6,371.1,366.7,370.9,366.9z"/>
	</g>
	<g id="mouse">
		<path class="st3" d="M838.4,569.9L838.4,569.9c-9.8-7.2-23.6-5.2-30.9,4.6l-0.1,0.1l-0.1,0.2l-24.6,33.3c-0.1,0.1-0.2,0.3-0.2,0.4
			l-1.3,1.8l0,0c-7.2,9.9-5,23.5,4.7,30.7c9.8,7.3,23.7,5.1,30.9-4.6l26.2-35.5C850.3,591,848.2,577.2,838.4,569.9z"/>
		<g>
			<g>
				<path class="st8" d="M813.3,573.8L813.3,573.8l-0.2,0.3l-24.6,33.3c-0.1,0.1-0.1,0.2-0.2,0.3l-1.2,1.6l0,0
					c-7.3,10.1-5.1,23.6,4.7,30.9l52.5-70.9C834.4,562,820.6,564,813.3,573.8z"/>
				<path class="st4" d="M844.2,569.2L844.2,569.2l-52.5,70.9c9.8,7.3,23.7,5.2,30.9-4.6l-0.1-0.1l0,0l0,0l0.1,0.1l26.2-35.4
					C856.1,590.3,854,576.5,844.2,569.2z"/>
			</g>
		</g>
	</g>
	<g id="iphone">
		<path class="st3" d="M747.4,331.7l55.8-17.5c4.4-1.4,6.8-6.1,5.5-10.5l-35-111.7c-1.4-4.4-6.1-6.8-10.5-5.5L707.4,204
			c-4.4,1.4-6.9,6.1-5.5,10.5l35,111.7C738.3,330.6,743.1,333.1,747.4,331.7z"/>
		<path class="st18" d="M768.5,188.5L712.7,206c-4.4,1.4-6.9,6.1-5.5,10.5l35,111.7c1.4,4.4,6.1,6.9,10.5,5.5l55.8-17.5
			c4.4-1.4,6.8-6.1,5.5-10.5L779,194C777.6,189.6,772.9,187.1,768.5,188.5z"/>
		<path class="st2" d="M803.6,300.2l-55.8,17.5L715.3,214l0,0l55.8-17.5l0,0L803.6,300.2z"/>
		
			<rect x="772" y="315" transform="matrix(0.9542 -0.2992 0.2992 0.9542 -59.2266 247.3863)" class="st18" width="12.5" height="4.2"/>
		<path class="st19" d="M715.2,214L715.2,214l32.5,103.7l55.8-17.5L771,196.5l0,0L715.2,214z"/>
		<path class="st20" d="M772.6,242.6l-3.3-5.1c-0.3-0.5-1.1-1-1.8-1.1l-10.2-1.1l0,0l-0.5-1.6c0.8-2.1,0.9-4.8,0.1-7.5l-0.7-2.2
			c-1.2-3.8-5.1-6-8.8-4.9l0,0l0,0l0,0c-3.6,1.1-5.6,5.2-4.4,9l0.7,2.2c0.9,2.7,2.5,4.9,4.3,6.1l0.5,1.6l0,0l-7.7,6.7
			c-0.5,0.4-0.8,1.3-0.8,1.9l0.2,6.1c0,0.6,0.5,1,1.1,0.8l15.4-4.8l0,0l15.4-4.8C772.7,243.7,772.9,243.1,772.6,242.6z"/>
		
			<rect x="743.4" y="258.8" transform="matrix(0.9542 -0.2993 0.2993 0.9542 -43.9082 239.9471)" class="st6" width="35.9" height="9"/>
		
			<rect x="747.5" y="271.8" transform="matrix(0.9542 -0.2992 0.2992 0.9542 -47.6052 241.6887)" class="st6" width="35.9" height="9"/>
		
			<rect x="760.3" y="284.5" transform="matrix(0.9542 -0.2992 0.2992 0.9542 -51.2302 243.4061)" class="st6" width="17.9" height="9"/>
		
			<ellipse transform="matrix(0.5216 -0.8532 0.8532 0.5216 120.8989 776.0041)" class="st2" cx="752.4" cy="280.2" rx="1.7" ry="1.7"/>
		<ellipse transform="matrix(0.5216 -0.8532 0.8532 0.5216 127.213 782.0442)" class="st2" cx="761" cy="277.6" rx="1.7" ry="1.7"/>
		
			<ellipse transform="matrix(0.5216 -0.8532 0.8532 0.5216 124.0279 778.9586)" class="st2" cx="756.6" cy="278.9" rx="1.7" ry="1.7"/>
		<path class="st2" d="M766.8,275.7c0.3,0.9-0.2,1.8-1.1,2.1c-0.9,0.3-1.8-0.2-2.1-1.1s0.2-1.8,1.1-2.1
			C765.6,274.4,766.5,274.8,766.8,275.7z"/>
		
			<ellipse transform="matrix(0.5216 -0.8532 0.8532 0.5216 129.8727 766.3693)" class="st2" cx="748.3" cy="267.4" rx="1.7" ry="1.7"/>
		
			<ellipse transform="matrix(0.5216 -0.8532 0.8532 0.5216 142.7062 778.4745)" class="st2" cx="765.5" cy="262" rx="1.7" ry="1.7"/>
		
			<ellipse transform="matrix(0.5216 -0.8532 0.8532 0.5216 136.2345 772.3961)" class="st2" cx="756.9" cy="264.7" rx="1.7" ry="1.7"/>
		
			<ellipse transform="matrix(0.5216 -0.8532 0.8532 0.5216 133.0574 769.4537)" class="st2" cx="752.7" cy="266.1" rx="1.7" ry="1.7"/>
		
			<ellipse transform="matrix(0.5216 -0.8532 0.8532 0.5216 139.5217 775.3881)" class="st2" cx="761.2" cy="263.3" rx="1.7" ry="1.7"/>
		
			<rect x="764.8" y="288" transform="matrix(0.9541 -0.2995 0.2995 0.9541 -51.3472 243.6976)" class="st11" width="9" height="2.7"/>
		<path class="st21" d="M768.5,188.5l-43.3,13.6l58.7,121.7l24.7-7.7c4.4-1.4,6.8-6.1,5.5-10.5l-35-111.7
			C777.6,189.6,772.9,187.1,768.5,188.5z"/>
	</g>
	<g id="matita1">
		<polygon class="st22" points="911.8,427.7 849.8,299.7 844.5,302.2 839.1,304.8 901.2,432.9 906.5,430.3 		"/>
		<polygon class="st23" points="915.6,445.6 911.8,427.7 901.2,432.9 912.9,446.9 916.8,451.6 		"/>
		<g>
			<g>
				<polygon class="st24" points="910.6,429.2 851.1,306.5 848.6,301.1 843.2,303.7 905.3,431.8 				"/>
				<polygon class="st24" points="910.6,429.2 915.9,426.6 853.9,298.6 848.6,301.1 851.1,306.5 				"/>
			</g>
			<g>
				<polygon class="st25" points="920.9,450.5 919.7,444.6 917,445.8 				"/>
				<polygon class="st26" points="919.7,444.6 915.9,426.6 905.3,431.8 917,445.8 				"/>
			</g>
			<g>
				
					<rect x="850.3" y="315" transform="matrix(0.8998 -0.4362 0.4362 0.8998 -52.6073 405.2715)" class="st27" width="11.9" height="4.4"/>
			</g>
		</g>
	</g>
	<g id="foglio2">
		<g>
			<g class="st28">
				<g>
					<polygon class="st29" points="203.1,33 179,221.6 329.7,240.8 353.8,52.3 355.4,39.8 204.7,20.5 					"/>
				</g>
			</g>
			<g>
				<g>
					
						<rect x="174.9" y="58.2" transform="matrix(0.1268 -0.9919 0.9919 0.1268 102.5705 384.8392)" class="st30" width="190" height="151.9"/>
				</g>
			</g>
			<g>
				<g>
					
						<rect x="276.4" y="-42.3" transform="matrix(0.1268 -0.9919 0.9919 0.1268 213.4623 309.8145)" class="st20" width="12.7" height="151.9"/>
				</g>
			</g>
			<g>
				<g>
					
						<rect x="240.8" y="105.6" transform="matrix(0.1268 -0.9919 0.9919 0.1268 104.7524 342.9109)" class="st21" width="12.7" height="12.7"/>
				</g>
			</g>
			<g>
				<g>
					
						<rect x="263.2" y="108.1" transform="matrix(0.1267 -0.9919 0.9919 0.1267 122.2808 361.4144)" class="st21" width="6.3" height="6.3"/>
				</g>
			</g>
			<g>
				<g>
					
						<rect x="247.9" y="61.4" transform="matrix(0.1268 -0.9919 0.9919 0.1268 125.6253 328.7555)" class="st18" width="3.2" height="63.2"/>
				</g>
			</g>
			<g>
				<g>
					
						<rect x="306.1" y="80" transform="matrix(0.1268 -0.9919 0.9919 0.1268 168.8785 393.0039)" class="st31" width="3.2" height="41.1"/>
				</g>
			</g>
			<g>
				<g>
					
						<rect x="270.7" y="40.7" transform="matrix(0.1268 -0.9919 0.9919 0.1268 136.2808 359.5155)" class="st31" width="3.2" height="123.4"/>
				</g>
			</g>
			<g>
				<g>
					
						<rect x="230.6" y="87.7" transform="matrix(0.1268 -0.9919 0.9919 0.1268 100.082 320.7723)" class="st31" width="3.2" height="31.6"/>
				</g>
			</g>
			<g>
				<g>
					
						<rect x="258.9" y="100.9" transform="matrix(0.1269 -0.9919 0.9919 0.1269 121.0659 352.1045)" class="st18" width="3.2" height="12.7"/>
				</g>
			</g>
			<g>
				<g>
					
						<rect x="298.3" y="85.3" transform="matrix(0.1268 -0.9919 0.9919 0.1268 150.5709 395.4062)" class="st31" width="3.2" height="53.8"/>
				</g>
			</g>
			<g>
				<g>
					
						<rect x="214.8" y="136.9" transform="matrix(0.1268 -0.9919 0.9919 0.1268 37.5776 347.99)" class="st18" width="3.2" height="31.6"/>
				</g>
			</g>
			<g>
				<g>
					
						<rect x="207" y="155" transform="matrix(0.1269 -0.9919 0.9919 0.1269 19.0014 350.5166)" class="st18" width="3.2" height="19"/>
				</g>
			</g>
			<g>
				<g>
					
						<rect x="228.9" y="160.8" transform="matrix(0.1269 -0.9919 0.9919 0.1269 35.4383 374.6177)" class="st18" width="3.2" height="12.7"/>
				</g>
			</g>
			<g>
				<g>
					
						<rect x="210.9" y="145.9" transform="matrix(0.1268 -0.9919 0.9919 0.1268 28.3056 349.2016)" class="st18" width="3.2" height="25.3"/>
				</g>
			</g>
			<g>
				<g>
					
						<rect x="212.4" y="155.7" transform="matrix(0.1268 -0.9919 0.9919 0.1268 16.6871 362.0057)" class="st18" width="3.2" height="31.6"/>
				</g>
			</g>
			<g>
				<g>
					
						<rect x="206.6" y="112.1" transform="matrix(0.1269 -0.9919 0.9919 0.1269 64.1216 335.1)" class="st8" width="31.7" height="38"/>
				</g>
			</g>
			<g>
				<g>
					
						<rect x="263.5" y="152.7" transform="matrix(0.1268 -0.9919 0.9919 0.1268 61.1204 412.8577)" class="st18" width="3.2" height="38"/>
				</g>
			</g>
			<g>
				<g>
					
						<rect x="250.1" y="170" transform="matrix(0.1268 -0.9919 0.9919 0.1268 44.8732 403.6713)" class="st18" width="3.2" height="12.7"/>
				</g>
			</g>
			<g>
				<g>
					
						<rect x="265.8" y="175.2" transform="matrix(0.127 -0.9919 0.9919 0.127 56.5813 420.9265)" class="st18" width="3.2" height="6.3"/>
				</g>
			</g>
			<g>
				<g>
					
						<rect x="254.9" y="154.7" transform="matrix(0.1268 -0.9919 0.9919 0.1268 61.0591 397.7735)" class="st18" width="3.2" height="19"/>
				</g>
			</g>
			<g>
				<g>
					
						<rect x="276.9" y="160.7" transform="matrix(0.1268 -0.9919 0.9919 0.1268 77.5363 422.0833)" class="st18" width="3.2" height="12.7"/>
				</g>
			</g>
			<g>
				<g>
					
						<rect x="261.9" y="142.8" transform="matrix(0.1268 -0.9919 0.9919 0.1268 72.7233 399.9005)" class="st18" width="3.2" height="31.6"/>
				</g>
			</g>
			<g>
				<g>
					
						<rect x="253.6" y="118.1" transform="matrix(0.1268 -0.9919 0.9919 0.1268 99.3192 386.9291)" class="st8" width="31.7" height="38"/>
				</g>
			</g>
			<g>
				<g>
					
						<rect x="312.2" y="146.1" transform="matrix(0.1268 -0.9919 0.9919 0.1268 110.2362 455.4955)" class="st18" width="3.2" height="38"/>
				</g>
			</g>
			<g>
				<g>
					
						<rect x="304.3" y="164.3" transform="matrix(0.1269 -0.9919 0.9919 0.1269 91.5239 457.9159)" class="st18" width="3.2" height="25.3"/>
				</g>
			</g>
			<g>
				<g>
					
						<rect x="299.9" y="163.4" transform="matrix(0.1268 -0.9919 0.9919 0.1268 94.8626 447.3105)" class="st18" width="3.2" height="12.7"/>
				</g>
			</g>
			<g>
				<g>
					
						<rect x="300.3" y="173.3" transform="matrix(0.1268 -0.9919 0.9919 0.1268 82.3745 459.087)" class="st18" width="3.2" height="19"/>
				</g>
			</g>
			<g>
				<g>
					
						<rect x="322.3" y="179.2" transform="matrix(0.1268 -0.9919 0.9919 0.1268 98.7741 483.355)" class="st18" width="3.2" height="12.7"/>
				</g>
			</g>
			<g>
				<g>
					
						<rect x="320.8" y="163.1" transform="matrix(0.1269 -0.9919 0.9919 0.1269 110.2787 470.5471)" class="st18" width="3.2" height="19"/>
				</g>
			</g>
			<g>
				<g>
					
						<rect x="300.8" y="124.2" transform="matrix(0.1268 -0.9919 0.9919 0.1268 134.4595 439.0498)" class="st8" width="31.6" height="38"/>
				</g>
			</g>
			<g>
				<g>
					
						<rect x="270.7" y="11.2" transform="matrix(0.1268 -0.9919 0.9919 0.1268 164.9458 342.6295)" class="st8" width="12.7" height="132.9"/>
				</g>
			</g>
			<g>
				<g>
					<g>
						
							<rect x="222.7" y="64.1" transform="matrix(0.1268 -0.9919 0.9919 0.1268 125.6695 284.3069)" class="st32" width="3.2" height="13.3"/>
					</g>
				</g>
			</g>
			<g>
				<g>
					<g>
						
							<rect x="244.4" y="60.9" transform="matrix(0.1268 -0.9919 0.9919 0.1268 145.3353 313.4759)" class="st18" width="12.7" height="26.6"/>
					</g>
				</g>
				<g>
					<g>
						
							<rect x="249.2" y="67.5" transform="matrix(0.1268 -0.9919 0.9919 0.1268 145.4294 313.5165)" class="st32" width="3.2" height="13.3"/>
					</g>
				</g>
			</g>
			<g>
				<g>
					<g>
						
							<rect x="275.4" y="71" transform="matrix(0.1269 -0.9919 0.9919 0.1269 164.8574 342.6122)" class="st32" width="3.2" height="13.3"/>
					</g>
				</g>
			</g>
			<g>
				<g>
					<g>
						
							<rect x="301.9" y="74.3" transform="matrix(0.1268 -0.9919 0.9919 0.1268 184.6844 371.7124)" class="st32" width="3.2" height="13.3"/>
					</g>
				</g>
			</g>
			<g>
				<g>
					<g>
						
							<rect x="328.2" y="77.7" transform="matrix(0.1268 -0.9919 0.9919 0.1268 204.3632 400.7973)" class="st32" width="3.2" height="13.3"/>
					</g>
				</g>
			</g>
			<g>
				<g>
					<g>
						
							<rect x="252.8" y="17.5" transform="matrix(0.1268 -0.9919 0.9919 0.1268 167.1607 300.8242)" class="st8" width="3.2" height="76"/>
					</g>
				</g>
				<g>
					<g>
						
							<rect x="225.4" y="36.1" transform="matrix(0.1268 -0.9919 0.9919 0.1268 152.9499 265.0399)" class="st8" width="3.2" height="19"/>
					</g>
				</g>
			</g>
			<g>
				<g>
					
						<rect x="248.4" y="136.9" transform="matrix(0.1268 -0.9919 0.9919 0.1268 26.1809 436.4936)" class="st8" width="25.3" height="132.9"/>
				</g>
			</g>
		</g>
	</g>
	<g id="foglio1">
		
			<rect x="30.9" y="19.2" transform="matrix(0.9495 -0.3137 0.3137 0.9495 -35.3187 41.025)" class="st29" width="157.9" height="222.2"/>
		<g>
			<g>
				<g>
					<g>
						
							<rect x="33" y="19.8" transform="matrix(0.9495 -0.3137 0.3137 0.9495 -35.3994 41.7122)" class="st19" width="157.9" height="222.2"/>
					</g>
				</g>
			</g>
			<g>
				
					<rect x="106.4" y="73.9" transform="matrix(0.9495 -0.3137 0.3137 0.9495 -17.3021 46.1864)" class="st33" width="57" height="6"/>
				
					<rect x="109.5" y="83.4" transform="matrix(0.9495 -0.3137 0.3137 0.9495 -20.1266 47.6374)" class="st6" width="57" height="6"/>
				
					<rect x="112.7" y="92.9" transform="matrix(0.9495 -0.3137 0.3137 0.9495 -22.9444 49.1226)" class="st6" width="57" height="6"/>
				
					<rect x="115.8" y="102.4" transform="matrix(0.9495 -0.3137 0.3137 0.9495 -25.7687 50.5738)" class="st6" width="57" height="6"/>
			</g>
			
				<rect x="25.4" y="67.9" transform="matrix(0.9495 -0.3137 0.3137 0.9495 -17.5672 32.5342)" class="st6" width="133.9" height="6"/>
			
				<rect x="19.1" y="39" transform="matrix(0.9495 -0.3137 0.3137 0.9495 -11.9593 29.6043)" class="st33" width="133.9" height="26"/>
			<g>
				
					<rect x="46.7" y="132.5" transform="matrix(0.9495 -0.3137 0.3137 0.9495 -36.7584 42.4765)" class="st6" width="133.9" height="6"/>
				
					<rect x="49.9" y="142" transform="matrix(0.9495 -0.3137 0.3137 0.9495 -39.5763 43.9616)" class="st6" width="133.9" height="6"/>
				
					<rect x="53" y="151.5" transform="matrix(0.9495 -0.3137 0.3137 0.9495 -42.4006 45.4126)" class="st6" width="133.9" height="6"/>
			</g>
			<g>
				
					<rect x="71.2" y="206.6" transform="matrix(0.9495 -0.3137 0.3137 0.9495 -58.7674 53.904)" class="st6" width="133.9" height="6"/>
				
					<rect x="75.1" y="220.8" transform="matrix(0.9495 -0.3137 0.3137 0.9495 -63.7791 51.156)" class="st6" width="104" height="6"/>
			</g>
			<g>
				
					<rect x="60.1" y="176.6" transform="matrix(0.9495 -0.3137 0.3137 0.9495 -51.0485 41.8662)" class="st33" width="89" height="6"/>
				
					<rect x="63.2" y="186.1" transform="matrix(0.9495 -0.3137 0.3137 0.9495 -53.8728 43.3172)" class="st6" width="89" height="6"/>
				
					<rect x="66.4" y="195.6" transform="matrix(0.9495 -0.3137 0.3137 0.9495 -56.6908 44.8021)" class="st6" width="89" height="6"/>
				
					<rect x="158.6" y="153.5" transform="matrix(0.9496 -0.3136 0.3136 0.9496 -43.3189 63.6139)" class="st31" width="35" height="26"/>
			</g>
			<g>
				
					<rect x="39.3" y="105.2" transform="matrix(0.9495 -0.3137 0.3137 0.9495 -36.4761 19.6338)" class="st6" width="7" height="36"/>
				<rect x="48.7" y="102" transform="matrix(0.9495 -0.3138 0.3138 0.9495 -35.0082 22.4283)" class="st6" width="7" height="36"/>
				
					<rect x="58.2" y="98.9" transform="matrix(0.9495 -0.3138 0.3138 0.9495 -33.5569 25.2536)" class="st6" width="7" height="36"/>
				<rect x="67.7" y="95.7" transform="matrix(0.9495 -0.3138 0.3138 0.9495 -32.071 28.072)" class="st6" width="7" height="36"/>
				
					<rect x="77.2" y="92.6" transform="matrix(0.9495 -0.3137 0.3137 0.9495 -30.6101 30.8846)" class="st6" width="7" height="36"/>
				
					<rect x="86.7" y="89.5" transform="matrix(0.9496 -0.3134 0.3134 0.9496 -29.1357 33.6715)" class="st6" width="7" height="36"/>
				
					<rect x="96.2" y="86.3" transform="matrix(0.9495 -0.3138 0.3138 0.9495 -27.6819 36.541)" class="st27" width="7" height="36"/>
				
					<rect x="42.4" y="124.7" transform="matrix(0.9496 -0.3134 0.3134 0.9496 -39.2656 21.0575)" class="st27" width="7" height="16"/>
				
					<rect x="51.4" y="118.6" transform="matrix(0.9495 -0.3137 0.3137 0.9495 -37.4033 23.6749)" class="st27" width="7" height="19"/>
				
					<rect x="62" y="122.3" transform="matrix(0.9495 -0.3138 0.3138 0.9495 -36.9411 27.0231)" class="st27" width="7" height="12"/>
				
					<rect x="69.9" y="109.4" transform="matrix(0.9495 -0.3137 0.3137 0.9495 -34.0538 29.0891)" class="st27" width="7" height="22"/>
				
					<rect x="78.8" y="102.3" transform="matrix(0.9495 -0.3137 0.3137 0.9495 -32.0022 31.6237)" class="st27" width="7" height="26"/>
				
					<rect x="91.4" y="118.7" transform="matrix(0.9495 -0.3138 0.3138 0.9495 -33.3849 35.9141)" class="st27" width="7" height="6"/>
				
					<rect x="99.3" y="105.8" transform="matrix(0.9496 -0.3134 0.3134 0.9496 -30.4738 37.9358)" class="st27" width="7" height="16"/>
			</g>
		</g>
	</g>
	<g id="occhiali">
		<g>
			<g>
				<path class="st2" d="M172.5,149.6c-1.3-0.2-2.2-1.5-2-2.8c1.6-9.3-4.6-18.1-13.8-19.7l-86.3-15.2c-1.3-0.2-2.2-1.5-2-2.8
					s1.5-2.2,2.8-2l86.3,15.2c11.9,2.1,19.9,13.5,17.8,25.4C175.1,148.9,173.8,149.8,172.5,149.6z"/>
			</g>
		</g>
		<g>
			<g>
				<g>
					<path class="st2" d="M172.5,149.6c-1.3-0.2-2.2-1.5-2-2.8c1.6-9.3-4.6-18.1-13.8-19.7l-86.3-15.2c-1.3-0.2-2.2-1.5-2-2.8
						s1.5-2.2,2.8-2l86.3,15.2c11.9,2.1,19.9,13.5,17.8,25.4C175.1,148.9,173.8,149.8,172.5,149.6z"/>
				</g>
			</g>
			<g>
				<g>
					<path class="st2" d="M76.7,132.7c-1.3-0.2-2.2-1.5-2-2.8c2.1-11.9,13.5-19.9,25.4-17.8l86.3,15.2c1.3,0.2,2.2,1.5,2,2.8
						s-1.5,2.2-2.8,2l-86.3-15.2c-9.2-1.6-18.1,4.6-19.7,13.8C79.3,132,78,132.9,76.7,132.7z"/>
				</g>
			</g>
		</g>
		<g class="st34">
			<g>
				<g>
					<path class="st35" d="M115.4,137c-0.9,5.3-6,8.8-11.3,7.9l-28.8-5.1c-5.3-0.9-8.8-6-7.9-11.3l3.4-19.2c0.9-5.3,6-8.8,11.3-7.9
						l28.8,5.1c5.3,0.9,8.8,6,7.9,11.3L115.4,137z"/>
				</g>
			</g>
		</g>
		<g class="st34">
			<g>
				<g>
					<path class="st35" d="M182.5,148.8c-0.9,5.3-6,8.8-11.3,7.9l-28.8-5.1c-5.3-0.9-8.8-6-7.9-11.3l3.4-19.2
						c0.9-5.3,6-8.8,11.3-7.9l28.8,5.1c5.3,0.9,8.8,6,7.9,11.3L182.5,148.8z"/>
				</g>
			</g>
		</g>
		<g>
			<g>
				<path class="st2" d="M135,138c-1.3-0.2-2.2-1.5-2-2.8c0.7-4-2-7.8-5.9-8.5c-4-0.7-7.8,2-8.5,5.9c-0.2,1.3-1.5,2.2-2.8,2
					s-2.2-1.5-2-2.8c1.2-6.6,7.5-11,14.1-9.9c6.6,1.2,11,7.5,9.9,14.1C137.6,137.4,136.3,138.3,135,138z"/>
			</g>
		</g>
		<g class="st34">
			<path class="st35" d="M82.1,101.9c-5.3-0.9-10.2,2.3-11.1,7.6l-3.4,19.2c-0.9,5.3,2.5,10.8,7.8,11.7l14.1,2.5l6.8-38.4
				L82.1,101.9z"/>
		</g>
		<g class="st34">
			<path class="st35" d="M149.2,113.7c-5.3-0.9-9.4,2.4-10.3,7.7l-3.4,19.2c-0.9,5.3,1.6,10.6,6.9,11.5l14,2.5l6.8-38.4L149.2,113.7
				z"/>
		</g>
		<g>
			<g>
				<path class="st21" d="M177.6,120.8l-28.8-5.1c-4-0.7-7.8,2-8.5,5.9l-3.4,19.2c-0.7,4,2,7.8,5.9,8.5l28.8,5.1
					c4,0.7,7.8-2,8.5-5.9l3.4-19.2C184.2,125.3,181.5,121.5,177.6,120.8z"/>
			</g>
			<g>
				<path class="st21" d="M110.5,109l-28.8-5.1c-4-0.7-7.8,2-8.5,5.9L69.8,129c-0.7,4,2,7.8,5.9,8.5l28.8,5.1c4,0.7,7.8-2,8.5-5.9
					l3.4-19.3C117.1,113.5,114.4,109.7,110.5,109z"/>
			</g>
			<g>
				<path class="st2" d="M111.3,104.2l-28.8-5.1c-6.6-1.2-12.9,3.3-14.1,9.9L65,128.2c-1.2,6.6,3.3,12.9,9.9,14.1l28.8,5.1
					c6.6,1.2,12.9-3.3,14.1-9.9l3.4-19.2C122.4,111.7,117.9,105.4,111.3,104.2z M113,136.6c-0.7,4-4.5,6.6-8.5,5.9l-28.8-5.1
					c-4-0.7-6.6-4.5-5.9-8.5l3.4-19.2c0.7-4,4.5-6.6,8.5-5.9l28.8,5.1c4,0.7,6.6,4.5,5.9,8.5L113,136.6z"/>
			</g>
			<g>
				<path class="st2" d="M178.4,116l-28.8-5.1c-6.6-1.2-12.9,3.3-14.1,9.9l-3.4,19.2c-1.2,6.6,3.3,12.9,9.9,14.1l28.8,5.1
					c6.6,1.2,12.9-3.3,14.1-9.9l3.4-19.2C189.5,123.5,185,117.2,178.4,116z M180.1,148.4c-0.7,4-4.5,6.6-8.5,5.9l-28.8-5.1
					c-4-0.7-6.6-4.5-5.9-8.5l3.4-19.2c0.7-4,4.5-6.6,8.5-5.9l28.8,5.1c4,0.7,6.6,4.5,5.9,8.5L180.1,148.4z"/>
			</g>
		</g>
	</g>
	<g id="calcolatrice">
		<path class="st3" d="M292.2,486.4l-45.1,20.5c-3.5,1.6-5.1,5.8-3.5,9.3l30.5,67.3c1.6,3.5,5.8,5.1,9.3,3.5l45.1-20.4
			c3.5-1.6,5.1-5.8,3.5-9.3L301.5,490C299.9,486.4,295.7,484.8,292.2,486.4z"/>
		<g>
			<path class="st19" d="M275.5,579.7c1.6,3.5,5.8,5.1,9.3,3.5l45.1-20.4c3.5-1.6,5.1-5.8,3.5-9.3l-30.5-67.3
				c-1.6-3.5-5.8-5.1-9.3-3.5l-45.1,20.4c-3.5,1.6-5.1,5.8-3.5,9.3L275.5,579.7z"/>
			<g>
				
					<rect x="261.4" y="528.4" transform="matrix(0.9107 -0.4131 0.4131 0.9107 -196.4455 157.5241)" class="st27" width="9.3" height="9.3"/>
				
					<rect x="274.2" y="522.6" transform="matrix(0.9107 -0.4131 0.4131 0.9107 -192.9004 162.2902)" class="st27" width="9.3" height="9.3"/>
				
					<rect x="287" y="516.8" transform="matrix(0.9107 -0.4131 0.4131 0.9107 -189.3611 167.0604)" class="st27" width="9.3" height="9.3"/>
				
					<rect x="299.8" y="511.1" transform="matrix(0.9107 -0.4131 0.4131 0.9107 -185.8674 171.8448)" class="st27" width="9.3" height="9.3"/>
				
					<rect x="267.2" y="541.2" transform="matrix(0.9106 -0.4132 0.4132 0.9106 -201.2513 161.1151)" class="st27" width="9.3" height="9.3"/>
				
					<rect x="279.9" y="535.3" transform="matrix(0.9107 -0.4131 0.4131 0.9107 -197.6451 165.7803)" class="st27" width="9.3" height="9.3"/>
				
					<rect x="292.7" y="529.6" transform="matrix(0.9107 -0.413 0.413 0.9107 -194.1004 170.5058)" class="st27" width="9.3" height="9.3"/>
				
					<rect x="305.5" y="523.7" transform="matrix(0.9107 -0.4131 0.4131 0.9107 -190.5614 175.3163)" class="st27" width="9.3" height="9.3"/>
				
					<rect x="273" y="554" transform="matrix(0.9107 -0.413 0.413 0.9107 -205.935 164.5476)" class="st27" width="9.3" height="9.3"/>
				
					<rect x="285.8" y="548.2" transform="matrix(0.9107 -0.4131 0.4131 0.9107 -202.4431 169.3684)" class="st27" width="9.3" height="9.3"/>
				
					<rect x="298.5" y="542.3" transform="matrix(0.9107 -0.4131 0.4131 0.9107 -198.8701 174.0854)" class="st27" width="9.3" height="9.3"/>
				
					<rect x="311.3" y="536.6" transform="matrix(0.9107 -0.4131 0.4131 0.9107 -195.3764 178.8658)" class="st27" width="9.3" height="9.3"/>
				
					<rect x="278.8" y="566.7" transform="matrix(0.9106 -0.4132 0.4132 0.9106 -210.7522 168.1845)" class="st27" width="9.3" height="9.3"/>
				
					<rect x="291.6" y="560.9" transform="matrix(0.9106 -0.4133 0.4133 0.9106 -207.2555 173.0138)" class="st27" width="9.3" height="9.3"/>
				
					<rect x="303.7" y="552.3" transform="matrix(0.9107 -0.4131 0.4131 0.9107 -201.9066 180.0436)" class="st36" width="23.4" height="9.3"/>
			</g>
			
				<rect x="251.8" y="498" transform="matrix(0.9107 -0.4131 0.4131 0.9107 -184.8038 159.9565)" class="st37" width="51.4" height="18.7"/>
			
				<rect x="283.7" y="498.8" transform="matrix(0.9107 -0.413 0.413 0.9107 -182.3892 163.0965)" class="st38" width="4.7" height="9.3"/>
			
				<rect x="292.1" y="495" transform="matrix(0.9105 -0.4135 0.4135 0.9105 -180.2783 166.4818)" class="st38" width="4.7" height="9.4"/>
			
				<rect x="266.7" y="506.5" transform="matrix(0.9108 -0.4128 0.4128 0.9108 -187.0052 156.6525)" class="st38" width="4.7" height="9.3"/>
			
				<rect x="275.3" y="502.8" transform="matrix(0.9107 -0.413 0.413 0.9107 -184.7862 159.9816)" class="st38" width="4.7" height="9.3"/>
		</g>
	</g>
</g>
</svg>
