<?xml version="1.0" encoding="UTF-8"?>
<svg enable-background="new 0 0 920.9 645.3" version="1.1" viewBox="0 0 920.9 645.3" xmlSpace="preserve" xmlns="http://www.w3.org/2000/svg">
<style type="text/css">
	.st0{display:none;}
	.st1{display:inline;fill:#3498DB;}
	.st2{fill:#586273;}
	.st3{opacity:0.8;fill:#BCBCBC;enable-background:new    ;}
	.st4{fill:#E6E9ED;}
	.st5{opacity:0.3;fill:#B7BFC7;enable-background:new    ;}
	.st6{fill:#DCE4E8;}
	.st7{display:none;fill:url(#a);}
	.st8{fill:#CCD1D9;}
	.st9{display:none;fill:#F5F7FA;stroke:#CCD1D9;stroke-miterlimit:10;}
	.st10{fill:#3B3B3B;stroke:#C1C1C1;stroke-miterlimit:10;}
	.st11{fill:#E74C3C;}
	.st12{fill:#D8D8DA;}
	.st13{fill:#AAB2BD;}
	.st14{fill:#FFFFFF;}
	.st15{fill:#E6E7E8;}
	.st16{fill:#49433C;}
	.st17{fill:#363532;}
	.st18{fill:#434A54;}
	.st19{fill:#F7F9F8;}
	.st20{fill:#44C650;}
	.st21{fill:none;}
	.st22{display:none;opacity:0.8;fill:#2980B9;enable-background:new    ;}
	.st23{display:none;fill:#2980B9;}
	.st24{fill:#58585C;}
	.st25{fill:#464E5C;}
	.st26{fill:#F7D39A;}
	.st27{fill:#FF3300;}
	.st28{opacity:0.8;}
	.st29{fill:#BCBCBC;}
	.st30{fill:#EBF4FF;}
	.st31{fill:#30BCED;}
	.st32{fill:#E5E5E5;}
	.st33{fill:#B7BFC7;}
	.st34{opacity:0.3;}
	.st35{fill:#EFEEEE;}
	.st36{fill:#656D78;}
	.st37{fill:#2C3E50;}
	.st38{fill:#ECF0F1;}
</style>
<g class="st0">
	<rect class="st1" x="-7179.9" y="-5325.3" width="16292" height="14784"/>
</g>
<g xmlnsCc="http://creativecommons.org/ns#" xmlnsDc="http://purl.org/dc/elements/1.1/" xmlnsInkscape="http://www.inkscape.org/namespaces/inkscape" xmlnsRdf="http://www.w3.org/1999/02/22-rdf-syntax-ns#" xmlnsSodipodi="http://sodipodi.sourceforge.net/DTD/sodipodi-0.dtd" xmlnsSvg="http://www.w3.org/2000/svg">
	
		<path class="st2" d="m767.7 473.8z"/>
		<path class="st3" d="m798.6 446.4-342.2-155.8s-8.2-3.7-11.9 4.5 4.5 11.9 4.5 11.9l24.6 11.2s-8.2-3.7-11.9 4.5c-4.7 10.3-4.7 10.2-77.5 170.2-3.9 8.5 0.8 19 9.3 22.9l277.6 126.4c8.5 3.9 18.6 0.1 22.5-8.4 0 0 59.1-129.8 74.2-162.9 0.1-0.2 0.6-1.3 3.3-7.3 3.7-8.2-4.5-11.9-4.5-11.9l24.6 11.2s8.2 3.7 11.9-4.5-4.5-12-4.5-12z"/>
		
			<path class="st4" d="m699.5 631.7c-3.9 8.5-14 12.3-22.5 8.4l-277.6-126.4c-8.5-3.9-13.2-14.4-9.3-22.9 0 0 73.8-162 77.5-170.2s11.9-4.5 11.9-4.5l293 133.5s8.2 3.7 4.5 11.9-77.5 170.2-77.5 170.2z"/>
			<path class="st5" d="m773.7 468.8-364.2-20.6s54.4-119.4 58.1-127.6 11.9-4.5 11.9-4.5l293 133.5s8.2 3.7 4.5 11.9-3.3 7.3-3.3 7.3z"/>
			
				<rect class="st6" transform="matrix(.4145 -.91 .91 .4145 13.24 794.69)" x="619.7" y="306.1" width="9" height="161.9"/>
			
				<radialGradient id="a" cx="1833.4" cy="-13273" r="163.22" gradientTransform="matrix(.9118 .4011 .0955 -.1842 211.99 -2795.2)" gradientUnits="userSpaceOnUse">
				<stop stop-color="#3498DB" stop-opacity=".4" offset=".103"/>
				<stop stop-color="#3498DB" stop-opacity=".0565" offset=".7955"/>
				<stop stop-color="#3498DB" stop-opacity="0" offset=".9095"/>
			</radialGradient>
			<polygon class="st7" points="789.5 495.6 454.8 345.1 498.9 305.3 798 441.7"/>
			<path class="st8" d="m797.1 460.8-342.2-155.8s-8.2-3.7-4.5-11.9 11.9-4.5 11.9-4.5l342.2 155.9s8.2 3.7 4.5 11.9-11.9 4.4-11.9 4.4z"/>
			
				<rect class="st9" transform="matrix(.4145 -.91 .91 .4145 -169.43 820.6)" x="530" y="495.5" width="46" height="92.9"/>
			
				
					<rect class="st10" transform="matrix(.4145 -.9101 .9101 .4145 -40.746 682.11)" x="503.7" y="363.7" width="12" height="18"/>
				
					<rect class="st10" transform="matrix(.4145 -.91 .91 .4145 -63.829 685.38)" x="492.2" y="383.3" width="17" height="18"/>
				
					<rect class="st10" transform="matrix(.4145 -.91 .91 .4145 -89.618 695.86)" x="486.5" y="402.6" width="19" height="30"/>
				
					<rect class="st10" transform="matrix(.4145 -.9101 .9101 .4145 -114.31 706.55)" x="483.4" y="420.6" width="17" height="43"/>
				<rect class="st10" transform="matrix(.4145 -.91 .91 .4145 -59.984 711.79)" x="514.7" y="393" width="17" height="19"/>
				
					<rect class="st10" transform="matrix(.4145 -.91 .91 .4145 -84.97 728.52)" x="514.2" y="420.8" width="19" height="19"/>
				<rect class="st10" transform="matrix(.4145 -.91 .91 .4145 -108.73 746.06)" x="517" y="448" width="17" height="19"/>
				
					<rect class="st10" transform="matrix(.4145 -.91 .91 .4145 -104.95 771.36)" x="538.5" y="458.2" width="17" height="18"/>
				
					<rect class="st10" transform="matrix(.4145 -.9101 .9101 .4145 -100.95 798.21)" x="561.3" y="468.6" width="17" height="18"/>
				
					<rect class="st10" transform="matrix(.4145 -.91 .91 .4145 -97.433 823.87)" x="583.1" y="478.7" width="17" height="18"/>
				
					<rect class="st10" transform="matrix(.4145 -.9101 .9101 .4145 -93.334 850.71)" x="605.9" y="488.9" width="17" height="18"/>
				
					<rect class="st10" transform="matrix(.4145 -.9101 .9101 .4145 -89.626 875.82)" x="627.3" y="498.1" width="17" height="19"/>
				
					<rect class="st10" transform="matrix(.4145 -.91 .91 .4145 -84.022 915.37)" x="660.9" y="501.5" width="17" height="43"/>
				
					<rect class="st10" transform="matrix(.4145 -.91 .91 .4145 -81.148 754.7)" x="536.5" y="431.4" width="19" height="18"/>
				
					<rect class="st10" transform="matrix(.4145 -.91 .91 .4145 -77.387 781.03)" x="558.8" y="441.2" width="19" height="19"/>
				
					<rect class="st10" transform="matrix(.4144 -.9101 .9101 .4144 -73.438 807.34)" x="581.1" y="451.7" width="19" height="18"/>
				
					<rect class="st10" transform="matrix(.4145 -.91 .91 .4145 -69.695 833.45)" x="603.4" y="461.4" width="19" height="19"/>
				
					<rect class="st10" transform="matrix(.4145 -.91 .91 .4145 -65.846 859.84)" x="625.8" y="472.1" width="19" height="18"/>
				<rect class="st10" transform="matrix(.4145 -.91 .91 .4145 -62.039 885.93)" x="648" y="481.7" width="19" height="19"/>
				
					<rect class="st10" transform="matrix(.4145 -.9101 .9101 .4145 -57.295 918.63)" x="675.8" y="488.8" width="19" height="30"/>
				
					<rect class="st10" transform="matrix(.4145 -.91 .91 .4145 -56.141 738.49)" x="537.4" y="403.4" width="17" height="19"/>
				
					<rect class="st10" transform="matrix(.4145 -.91 .91 .4145 -52.498 763.79)" x="558.8" y="413.7" width="17" height="18"/>
				
					<rect class="st10" transform="matrix(.4145 -.9101 .9101 .4145 -48.444 790.56)" x="581.7" y="423.9" width="17" height="18"/>
				
					<rect class="st10" transform="matrix(.4145 -.9101 .9101 .4145 -44.77 816.35)" x="603.5" y="434" width="17" height="18"/>
				
					<rect class="st10" transform="matrix(.4144 -.9101 .9101 .4144 -40.971 843.12)" x="626.2" y="444.4" width="17" height="18"/>
				
					<rect class="st10" transform="matrix(.4145 -.9101 .9101 .4145 -37.17 868.09)" x="647.5" y="453.4" width="17" height="19"/>
				
					<rect class="st10" transform="matrix(.4145 -.9101 .9101 .4145 -31.4 907.72)" x="681.2" y="456.8" width="17" height="43"/>
				
					<rect class="st10" transform="matrix(.4145 -.9101 .9101 .4145 -141.94 696.98)" x="461.2" y="449.8" width="19" height="18"/>
				
					<rect class="st10" transform="matrix(.4145 -.91 .91 .4145 -138.26 723.09)" x="483.3" y="459.5" width="19" height="19"/>
				
					<rect class="st10" transform="matrix(.4145 -.91 .91 .4145 -126.75 801.84)" x="550.3" y="441.5" width="19" height="115.9"/>
				
					<rect class="st10" transform="matrix(.4145 -.9101 .9101 .4145 -115.41 879.49)" x="616.3" y="519.9" width="19" height="19"/>
				
					<rect class="st10" transform="matrix(.4145 -.9101 .9101 .4145 -111.4 906.22)" x="639.1" y="530.2" width="19" height="19"/>
				
					<rect class="st10" transform="matrix(.4145 -.9101 .9101 .4145 -107.68 932.57)" x="661.4" y="541" width="19" height="18"/>
				
					<rect class="st10" transform="matrix(.4145 -.91 .91 .4145 -36.952 708.43)" x="526.1" y="373.4" width="12" height="19"/>
				
					<rect class="st10" transform="matrix(.4145 -.9101 .9101 .4145 -32.935 735.15)" x="548.8" y="383.7" width="12" height="19"/>
				
					<rect class="st10" transform="matrix(.4145 -.91 .91 .4145 -29.507 760.41)" x="570.2" y="394.1" width="12" height="18"/>
				
					<rect class="st10" transform="matrix(.4145 -.91 .91 .4145 -25.708 787.15)" x="592.9" y="404.6" width="12" height="18"/>
				
					<rect class="st10" transform="matrix(.4145 -.9101 .9101 .4145 -21.666 813)" x="615" y="414.3" width="12" height="18"/>
				
					<rect class="st10" transform="matrix(.4145 -.9101 .9101 .4145 -17.897 839.58)" x="637.5" y="424.7" width="12" height="18"/>
				
					<rect class="st10" transform="matrix(.4145 -.9101 .9101 .4145 -14.075 864.87)" x="659.1" y="433.9" width="12" height="19"/>
				
					<rect class="st10" transform="matrix(.4145 -.91 .91 .4145 -10.463 891.45)" x="681.6" y="444.4" width="12" height="19"/>
				<rect class="st10" transform="matrix(.4146 -.91 .91 .4146 -6.655 917.77)" x="704" y="455.1" width="12" height="18"/>
			
		
	
	
		<circle class="st3" cx="347.1" cy="354.6" r="50.6"/>
		<circle class="st4" cx="352.1" cy="352.6" r="50.6"/>
		<path class="st11" d="m352.1 310.9c23 0 41.7 18.7 41.7 41.7s-18.7 41.7-41.7 41.7c-10.4 0-19.9-3.8-27.1-10.1-8.9-7.6-14.5-19-14.5-31.6-0.1-23.1 18.5-41.7 41.6-41.7z"/>
		<path class="st4" d="m352.1 309.9c23.6 0 42.7 19.1 42.7 42.7s-19.1 42.7-42.7 42.7c-10.6 0-20.3-3.9-27.8-10.3-9.1-7.8-14.9-19.4-14.9-32.4 0-23.6 19.1-42.7 42.7-42.7z"/>
		
			<ellipse class="st12" transform="matrix(.1184 -.993 .993 .1184 -83.551 674.99)" cx="338.3" cy="384.5" rx="7.7" ry="11.6"/>
		<polygon class="st8" points="288.9 374.8 329.7 381.7 329.3 385.3 288 382.5"/>
		
			<ellipse class="st13" transform="matrix(.1184 -.993 .993 .1184 -83.546 674.97)" cx="338.3" cy="384.5" rx="6.4" ry="9.6"/>
		<path class="st14" d="m324.8 309.7 9.7 12.5c1.6 2.1 1.2 5-0.8 6.7-2.1 1.6-5 1.2-6.6-0.8l-9.7-12.5c-1.6-2.1-1.2-5 0.8-6.7 2-1.6 5-1.2 6.6 0.8z"/>
		<circle class="st14" cx="352.1" cy="352.6" r="34.8"/>
		<circle class="st15" cx="352.1" cy="352.6" r="31.3"/>
		<circle class="st16" cx="352.1" cy="352.6" r="29.6"/>
		<path class="st17" d="m330.8 369.1c9.1 11.7 26 13.8 37.7 4.7 0.7-0.5 0.8-1.5 0.3-2.2s-1.5-0.8-2.2-0.3l-0.9 0.6-0.2 0.2c-0.3 0.2-0.5 0.4-0.8 0.5-0.1 0.1-0.2 0.1-0.3 0.2l-0.6 0.3c-0.1 0.1-0.3 0.1-0.4 0.2-0.2 0.1-0.5 0.2-0.7 0.4-0.2 0.1-0.4 0.2-0.5 0.3s-0.3 0.1-0.4 0.2c-0.2 0.1-0.3 0.2-0.5 0.2-0.2 0.1-0.5 0.2-0.7 0.3s-0.3 0.1-0.5 0.2c-0.1 0.1-0.3 0.1-0.5 0.2-0.1 0.1-0.3 0.1-0.4 0.1-0.3 0.1-0.6 0.2-0.9 0.2-0.1 0-0.2 0.1-0.3 0.1-0.3 0.1-0.5 0.1-0.8 0.2-0.1 0-0.2 0-0.2 0.1-0.3 0.1-0.7 0.1-1 0.2h-0.1c-0.2 0-0.4 0.1-0.6 0.1-0.1 0-0.3 0-0.5 0.1h-0.1c-0.7 0.1-1.5 0.1-2.2 0.1s-1.5 0-2.2-0.1h-0.1c-0.3 0-0.7-0.1-1-0.1h-0.1c-0.3 0-0.6-0.1-0.9-0.1-0.1 0-0.3 0-0.4-0.1-0.2 0-0.4-0.1-0.5-0.1-0.6-0.1-1.3-0.3-1.9-0.5-3.4-1-6.6-2.8-9.3-5.2h-0.1l-0.4-0.4s-0.2-0.2-0.4-0.4l-0.4-0.4c-0.2-0.2-0.4-0.4-0.6-0.7-0.1-0.1-0.1-0.2-0.2-0.2-0.2-0.3-0.5-0.5-0.7-0.8s-0.4-0.6-0.6-0.9c-0.1-0.1-0.1-0.2-0.2-0.3-0.2-0.2-0.3-0.5-0.5-0.7-0.1-0.1-0.2-0.3-0.3-0.4s-0.2-0.3-0.3-0.4c-0.1-0.2-0.2-0.4-0.3-0.5v-0.1c-1.7-3.2-2.6-6.7-2.8-10.3v-2.5s0-0.3 0-0.4c0-0.3 0.1-0.6 0.1-1v-0.1c0-0.3 0.1-0.7 0.1-1v-0.1c0.1-0.7 0.3-1.4 0.5-2.2 0.2-0.7 0.4-1.4 0.7-2.1v-0.1c0.1-0.1 0.1-0.3 0.2-0.4 0.1-0.2 0.2-0.4 0.2-0.6v-0.1c0.1-0.3 0.3-0.6 0.4-0.9 0-0.1 0.1-0.1 0.1-0.2 0.1-0.2 0.2-0.5 0.4-0.7 0.1-0.1 0.1-0.2 0.2-0.3 0.1-0.3 0.3-0.5 0.4-0.8 0.1-0.1 0.2-0.3 0.3-0.4s0.2-0.3 0.3-0.4 0.2-0.3 0.3-0.4c0.2-0.2 0.3-0.4 0.5-0.6 0.1-0.1 0.2-0.3 0.3-0.4l0.3-0.3c0.1-0.2 0.3-0.3 0.4-0.5 0.2-0.2 0.3-0.4 0.5-0.6l0.8-0.8c0.1-0.1 0.1-0.2 0.2-0.2l0.9-0.9c0.3-0.2 0.5-0.5 0.8-0.7 0.7-0.5 0.8-1.5 0.3-2.2s-1.5-0.8-2.2-0.3c-11.4 9-13.5 26-4.5 37.7z"/>
		<path class="st17" d="m340.8 329.9c0.3 0.8 1.3 1.2 2.1 0.8l0.6-0.3h0.1c0.2-0.1 0.4-0.1 0.6-0.2 0.1 0 0.1 0 0.2-0.1 0.2-0.1 0.4-0.1 0.6-0.2 0.4-0.1 0.9-0.3 1.4-0.4h0.2c0.4-0.1 0.9-0.2 1.3-0.3 0.1 0 0.2 0 0.3-0.1h-0.2 0.2c0.1 0 0.3 0 0.4-0.1h0.1-0.1 0.2c0.6-0.1 1.1 0.2 1.4 0.6 0.2 0.2 0.3 0.5 0.3 0.8 0.1 0.9-0.5 1.7-1.3 1.8-1.3 0.2-2.6 0.5-3.9 0.9h-0.1c-0.4 0.1-0.8 0.3-1.2 0.5-0.8 0.4-1.1 1.3-0.8 2.1s1.3 1.2 2.1 0.8c2.2-0.9 4.5-1.4 6.9-1.4h2.2c0.4 0.1 0.7 0.3 0.9 0.6s0.4 0.7 0.3 1.2c-0.1 0.9-0.9 1.5-1.8 1.4-2.5-0.3-5 0-7.2 1h-0.1c-0.8 0.3-1.2 1.3-0.8 2.1 0.3 0.8 1.3 1.2 2.1 0.8 4.6-1.9 10-0.5 13 3.4 3.1 4 3.1 9.5 0.1 13.5-0.5 0.7-0.4 1.7 0.3 2.2s1.7 0.4 2.2-0.3l0.2-0.2c1.4-1.9 2.3-4.2 2.6-6.6 0.1-0.9 0.9-1.5 1.8-1.4 0.4 0.1 0.8 0.3 1.1 0.6 0.2 0.3 0.4 0.7 0.3 1.1v0.1c0 0.1 0 0.2-0.1 0.3v0.3c0 0.1-0.1 0.3-0.1 0.4s0 0.2-0.1 0.3c0 0.2-0.1 0.3-0.1 0.5v0.2c-0.6 2.3-1.6 4.4-3 6.3-0.5 0.7-0.4 1.7 0.3 2.2s1.7 0.4 2.2-0.3c0.3-0.4 0.5-0.7 0.8-1.1v-0.1c0.7-1.1 1.4-2.3 1.9-3.5 0.3-0.8 1.2-1.2 2.1-0.9 0.3 0.1 0.5 0.3 0.6 0.5 0.3 0.4 0.4 1 0.2 1.5 0 0.1 0 0.1-0.1 0.2l-0.3 0.6c0 0.1-0.1 0.2-0.1 0.3l-0.3 0.6c0 0.1-0.1 0.2-0.1 0.2l-0.3 0.6c0 0.1-0.1 0.1-0.1 0.2-0.1 0.3-0.3 0.5-0.5 0.8-0.1 0.2-0.3 0.4-0.4 0.6l-0.1 0.1c-0.1 0.1-0.1 0.2-0.2 0.3s-0.1 0.1-0.1 0.2l-0.1 0.1c-0.1 0.2-0.3 0.4-0.4 0.6-0.5 0.7-0.4 1.7 0.3 2.2s1.7 0.4 2.2-0.3c7.3-9.7 7.3-23.1-0.2-32.7-7.4-9.6-20.5-13-31.6-8.3-0.9 0.7-1.2 1.6-0.9 2.4zm32.9 32.3c0 0.1-0.1 0.2-0.1 0.2s0.1-0.1 0.1-0.2zm-0.4 0.9c0 0.1-0.1 0.1-0.1 0.2 0 0 0.1-0.1 0.1-0.2zm-0.5 0.9-0.1 0.1c0.1 0 0.1-0.1 0.1-0.1zm1.2-2.4s0-0.1 0.1-0.1c-0.1 0-0.1 0-0.1 0.1z"/>
		<path class="st17" d="m370.9 366.9s0.1 0 0 0c0.2-0.2 0.3-0.4 0.4-0.6-0.1 0.3-0.2 0.4-0.4 0.6z"/>
	
	
		<path class="st3" d="m838.4 569.9c-9.8-7.2-23.6-5.2-30.9 4.6l-0.1 0.1-0.1 0.2-24.6 33.3c-0.1 0.1-0.2 0.3-0.2 0.4l-1.3 1.8c-7.2 9.9-5 23.5 4.7 30.7 9.8 7.3 23.7 5.1 30.9-4.6l26.2-35.5c7.3-9.9 5.2-23.7-4.6-31z"/>
		
			
				<path class="st8" d="m813.3 573.8-0.2 0.3-24.6 33.3c-0.1 0.1-0.1 0.2-0.2 0.3l-1.2 1.6c-7.3 10.1-5.1 23.6 4.7 30.9l52.5-70.9c-9.9-7.3-23.7-5.3-31 4.5z"/>
				<path class="st4" d="m844.2 569.2-52.5 70.9c9.8 7.3 23.7 5.2 30.9-4.6l-0.1-0.1 0.1 0.1 26.2-35.4c7.3-9.8 5.2-23.6-4.6-30.9z"/>
			
		
	
	
		<path class="st3" d="m747.4 331.7 55.8-17.5c4.4-1.4 6.8-6.1 5.5-10.5l-35-111.7c-1.4-4.4-6.1-6.8-10.5-5.5l-55.8 17.5c-4.4 1.4-6.9 6.1-5.5 10.5l35 111.7c1.4 4.4 6.2 6.9 10.5 5.5z"/>
		<path class="st18" d="m768.5 188.5-55.8 17.5c-4.4 1.4-6.9 6.1-5.5 10.5l35 111.7c1.4 4.4 6.1 6.9 10.5 5.5l55.8-17.5c4.4-1.4 6.8-6.1 5.5-10.5l-35-111.7c-1.4-4.4-6.1-6.9-10.5-5.5z"/>
		<path class="st2" d="m803.6 300.2-55.8 17.5-32.5-103.7 55.8-17.5 32.5 103.7z"/>
		
			<rect class="st18" transform="matrix(.9542 -.2992 .2992 .9542 -59.227 247.39)" x="772" y="315" width="12.5" height="4.2"/>
		<path class="st19" d="m715.2 214 32.5 103.7 55.8-17.5-32.5-103.7-55.8 17.5z"/>
		<path class="st20" d="m772.6 242.6-3.3-5.1c-0.3-0.5-1.1-1-1.8-1.1l-10.2-1.1-0.5-1.6c0.8-2.1 0.9-4.8 0.1-7.5l-0.7-2.2c-1.2-3.8-5.1-6-8.8-4.9-3.6 1.1-5.6 5.2-4.4 9l0.7 2.2c0.9 2.7 2.5 4.9 4.3 6.1l0.5 1.6-7.7 6.7c-0.5 0.4-0.8 1.3-0.8 1.9l0.2 6.1c0 0.6 0.5 1 1.1 0.8l30.8-9.6c0.6-0.2 0.8-0.8 0.5-1.3z"/>
		
			<rect class="st6" transform="matrix(.9542 -.2993 .2993 .9542 -43.908 239.95)" x="743.4" y="258.8" width="35.9" height="9"/>
		
			<rect class="st6" transform="matrix(.9542 -.2992 .2992 .9542 -47.605 241.69)" x="747.5" y="271.8" width="35.9" height="9"/>
		
			<rect class="st6" transform="matrix(.9542 -.2992 .2992 .9542 -51.23 243.41)" x="760.3" y="284.5" width="17.9" height="9"/>
		
			<ellipse class="st2" transform="matrix(.5216 -.8532 .8532 .5216 120.9 776)" cx="752.4" cy="280.2" rx="1.7" ry="1.7"/>
		<ellipse class="st2" transform="matrix(.5216 -.8532 .8532 .5216 127.21 782.04)" cx="761" cy="277.6" rx="1.7" ry="1.7"/>
		
			<ellipse class="st2" transform="matrix(.5216 -.8532 .8532 .5216 124.03 778.96)" cx="756.6" cy="278.9" rx="1.7" ry="1.7"/>
		<path class="st2" d="m766.8 275.7c0.3 0.9-0.2 1.8-1.1 2.1s-1.8-0.2-2.1-1.1 0.2-1.8 1.1-2.1c0.9-0.2 1.8 0.2 2.1 1.1z"/>
		
			<ellipse class="st2" transform="matrix(.5216 -.8532 .8532 .5216 129.87 766.37)" cx="748.3" cy="267.4" rx="1.7" ry="1.7"/>
		
			<ellipse class="st2" transform="matrix(.5216 -.8532 .8532 .5216 142.71 778.47)" cx="765.5" cy="262" rx="1.7" ry="1.7"/>
		
			<ellipse class="st2" transform="matrix(.5216 -.8532 .8532 .5216 136.23 772.4)" cx="756.9" cy="264.7" rx="1.7" ry="1.7"/>
		
			<ellipse class="st2" transform="matrix(.5216 -.8532 .8532 .5216 133.06 769.45)" cx="752.7" cy="266.1" rx="1.7" ry="1.7"/>
		
			<ellipse class="st2" transform="matrix(.5216 -.8532 .8532 .5216 139.52 775.39)" cx="761.2" cy="263.3" rx="1.7" ry="1.7"/>
		
			<rect class="st11" transform="matrix(.9541 -.2995 .2995 .9541 -51.347 243.7)" x="764.8" y="288" width="9" height="2.7"/>
		<path class="st21" d="m768.5 188.5-43.3 13.6 58.7 121.7 24.7-7.7c4.4-1.4 6.8-6.1 5.5-10.5l-35-111.7c-1.5-4.3-6.2-6.8-10.6-5.4z"/>
	
	
		<polygon class="st22" points="911.8 427.7 849.8 299.7 844.5 302.2 839.1 304.8 901.2 432.9 906.5 430.3"/>
		<polygon class="st23" points="915.6 445.6 911.8 427.7 901.2 432.9 912.9 446.9 916.8 451.6"/>
		
			
				<polygon class="st24" points="910.6 429.2 851.1 306.5 848.6 301.1 843.2 303.7 905.3 431.8"/>
				<polygon class="st24" points="910.6 429.2 915.9 426.6 853.9 298.6 848.6 301.1 851.1 306.5"/>
			
			
				<polygon class="st25" points="920.9 450.5 919.7 444.6 917 445.8"/>
				<polygon class="st26" points="919.7 444.6 915.9 426.6 905.3 431.8 917 445.8"/>
			
			
				
					<rect class="st27" transform="matrix(.8998 -.4362 .4362 .8998 -52.607 405.27)" x="850.3" y="315" width="11.9" height="4.4"/>
			
		
	
	
		
			<g class="st28">
				
					<polygon class="st29" points="203.1 33 179 221.6 329.7 240.8 353.8 52.3 355.4 39.8 204.7 20.5"/>
				
			</g>
			
				
					
						<rect class="st30" transform="matrix(.1268 -.9919 .9919 .1268 102.57 384.84)" x="174.9" y="58.2" width="190" height="151.9"/>
				
			
			
				
					
						<rect class="st20" transform="matrix(.1268 -.9919 .9919 .1268 213.46 309.81)" x="276.4" y="-42.3" width="12.7" height="151.9"/>
				
			
			
				
					
						<rect class="st21" transform="matrix(.1268 -.9919 .9919 .1268 104.75 342.91)" x="240.8" y="105.6" width="12.7" height="12.7"/>
				
			
			
				
					
						<rect class="st21" transform="matrix(.1267 -.9919 .9919 .1267 122.28 361.41)" x="263.2" y="108.1" width="6.3" height="6.3"/>
				
			
			
				
					
						<rect class="st18" transform="matrix(.1268 -.9919 .9919 .1268 125.63 328.76)" x="247.9" y="61.4" width="3.2" height="63.2"/>
				
			
			
				
					
						<rect class="st31" transform="matrix(.1268 -.9919 .9919 .1268 168.88 393)" x="306.1" y="80" width="3.2" height="41.1"/>
				
			
			
				
					
						<rect class="st31" transform="matrix(.1268 -.9919 .9919 .1268 136.28 359.52)" x="270.7" y="40.7" width="3.2" height="123.4"/>
				
			
			
				
					
						<rect class="st31" transform="matrix(.1268 -.9919 .9919 .1268 100.08 320.77)" x="230.6" y="87.7" width="3.2" height="31.6"/>
				
			
			
				
					
						<rect class="st18" transform="matrix(.1269 -.9919 .9919 .1269 121.07 352.1)" x="258.9" y="100.9" width="3.2" height="12.7"/>
				
			
			
				
					
						<rect class="st31" transform="matrix(.1268 -.9919 .9919 .1268 150.57 395.41)" x="298.3" y="85.3" width="3.2" height="53.8"/>
				
			
			
				
					
						<rect class="st18" transform="matrix(.1268 -.9919 .9919 .1268 37.578 347.99)" x="214.8" y="136.9" width="3.2" height="31.6"/>
				
			
			
				
					
						<rect class="st18" transform="matrix(.1269 -.9919 .9919 .1269 19.001 350.52)" x="207" y="155" width="3.2" height="19"/>
				
			
			
				
					
						<rect class="st18" transform="matrix(.1269 -.9919 .9919 .1269 35.438 374.62)" x="228.9" y="160.8" width="3.2" height="12.7"/>
				
			
			
				
					
						<rect class="st18" transform="matrix(.1268 -.9919 .9919 .1268 28.306 349.2)" x="210.9" y="145.9" width="3.2" height="25.3"/>
				
			
			
				
					
						<rect class="st18" transform="matrix(.1268 -.9919 .9919 .1268 16.687 362.01)" x="212.4" y="155.7" width="3.2" height="31.6"/>
				
			
			
				
					
						<rect class="st8" transform="matrix(.1269 -.9919 .9919 .1269 64.122 335.1)" x="206.6" y="112.1" width="31.7" height="38"/>
				
			
			
				
					
						<rect class="st18" transform="matrix(.1268 -.9919 .9919 .1268 61.12 412.86)" x="263.5" y="152.7" width="3.2" height="38"/>
				
			
			
				
					
						<rect class="st18" transform="matrix(.1268 -.9919 .9919 .1268 44.873 403.67)" x="250.1" y="170" width="3.2" height="12.7"/>
				
			
			
				
					
						<rect class="st18" transform="matrix(.127 -.9919 .9919 .127 56.581 420.93)" x="265.8" y="175.2" width="3.2" height="6.3"/>
				
			
			
				
					
						<rect class="st18" transform="matrix(.1268 -.9919 .9919 .1268 61.059 397.77)" x="254.9" y="154.7" width="3.2" height="19"/>
				
			
			
				
					
						<rect class="st18" transform="matrix(.1268 -.9919 .9919 .1268 77.536 422.08)" x="276.9" y="160.7" width="3.2" height="12.7"/>
				
			
			
				
					
						<rect class="st18" transform="matrix(.1268 -.9919 .9919 .1268 72.723 399.9)" x="261.9" y="142.8" width="3.2" height="31.6"/>
				
			
			
				
					
						<rect class="st8" transform="matrix(.1268 -.9919 .9919 .1268 99.319 386.93)" x="253.6" y="118.1" width="31.7" height="38"/>
				
			
			
				
					
						<rect class="st18" transform="matrix(.1268 -.9919 .9919 .1268 110.24 455.5)" x="312.2" y="146.1" width="3.2" height="38"/>
				
			
			
				
					
						<rect class="st18" transform="matrix(.1269 -.9919 .9919 .1269 91.524 457.92)" x="304.3" y="164.3" width="3.2" height="25.3"/>
				
			
			
				
					
						<rect class="st18" transform="matrix(.1268 -.9919 .9919 .1268 94.863 447.31)" x="299.9" y="163.4" width="3.2" height="12.7"/>
				
			
			
				
					
						<rect class="st18" transform="matrix(.1268 -.9919 .9919 .1268 82.374 459.09)" x="300.3" y="173.3" width="3.2" height="19"/>
				
			
			
				
					
						<rect class="st18" transform="matrix(.1268 -.9919 .9919 .1268 98.774 483.36)" x="322.3" y="179.2" width="3.2" height="12.7"/>
				
			
			
				
					
						<rect class="st18" transform="matrix(.1269 -.9919 .9919 .1269 110.28 470.55)" x="320.8" y="163.1" width="3.2" height="19"/>
				
			
			
				
					
						<rect class="st8" transform="matrix(.1268 -.9919 .9919 .1268 134.46 439.05)" x="300.8" y="124.2" width="31.6" height="38"/>
				
			
			
				
					
						<rect class="st8" transform="matrix(.1268 -.9919 .9919 .1268 164.95 342.63)" x="270.7" y="11.2" width="12.7" height="132.9"/>
				
			
			
				
					
						
							<rect class="st32" transform="matrix(.1268 -.9919 .9919 .1268 125.67 284.31)" x="222.7" y="64.1" width="3.2" height="13.3"/>
					
				
			
			
				
					
						
							<rect class="st18" transform="matrix(.1268 -.9919 .9919 .1268 145.34 313.48)" x="244.4" y="60.9" width="12.7" height="26.6"/>
					
				
				
					
						
							<rect class="st32" transform="matrix(.1268 -.9919 .9919 .1268 145.43 313.52)" x="249.2" y="67.5" width="3.2" height="13.3"/>
					
				
			
			
				
					
						
							<rect class="st32" transform="matrix(.1269 -.9919 .9919 .1269 164.86 342.61)" x="275.4" y="71" width="3.2" height="13.3"/>
					
				
			
			
				
					
						
							<rect class="st32" transform="matrix(.1268 -.9919 .9919 .1268 184.68 371.71)" x="301.9" y="74.3" width="3.2" height="13.3"/>
					
				
			
			
				
					
						
							<rect class="st32" transform="matrix(.1268 -.9919 .9919 .1268 204.36 400.8)" x="328.2" y="77.7" width="3.2" height="13.3"/>
					
				
			
			
				
					
						
							<rect class="st8" transform="matrix(.1268 -.9919 .9919 .1268 167.16 300.82)" x="252.8" y="17.5" width="3.2" height="76"/>
					
				
				
					
						
							<rect class="st8" transform="matrix(.1268 -.9919 .9919 .1268 152.95 265.04)" x="225.4" y="36.1" width="3.2" height="19"/>
					
				
			
			
				
					
						<rect class="st8" transform="matrix(.1268 -.9919 .9919 .1268 26.181 436.49)" x="248.4" y="136.9" width="25.3" height="132.9"/>
				
			
		
	
	
		
			<rect class="st29" transform="matrix(.9495 -.3137 .3137 .9495 -35.319 41.025)" x="30.9" y="19.2" width="157.9" height="222.2"/>
		
			
				
					
						
							<rect class="st19" transform="matrix(.9495 -.3137 .3137 .9495 -35.399 41.712)" x="33" y="19.8" width="157.9" height="222.2"/>
					
				
			
			
				
					<rect class="st33" transform="matrix(.9495 -.3137 .3137 .9495 -17.302 46.186)" x="106.4" y="73.9" width="57" height="6"/>
				
					<rect class="st6" transform="matrix(.9495 -.3137 .3137 .9495 -20.127 47.637)" x="109.5" y="83.4" width="57" height="6"/>
				
					<rect class="st6" transform="matrix(.9495 -.3137 .3137 .9495 -22.944 49.123)" x="112.7" y="92.9" width="57" height="6"/>
				
					<rect class="st6" transform="matrix(.9495 -.3137 .3137 .9495 -25.769 50.574)" x="115.8" y="102.4" width="57" height="6"/>
			
			
				<rect class="st6" transform="matrix(.9495 -.3137 .3137 .9495 -17.567 32.534)" x="25.4" y="67.9" width="133.9" height="6"/>
			
				<rect class="st33" transform="matrix(.9495 -.3137 .3137 .9495 -11.959 29.604)" x="19.1" y="39" width="133.9" height="26"/>
			
				
					<rect class="st6" transform="matrix(.9495 -.3137 .3137 .9495 -36.758 42.476)" x="46.7" y="132.5" width="133.9" height="6"/>
				
					<rect class="st6" transform="matrix(.9495 -.3137 .3137 .9495 -39.576 43.962)" x="49.9" y="142" width="133.9" height="6"/>
				
					<rect class="st6" transform="matrix(.9495 -.3137 .3137 .9495 -42.401 45.413)" x="53" y="151.5" width="133.9" height="6"/>
			
			
				
					<rect class="st6" transform="matrix(.9495 -.3137 .3137 .9495 -58.767 53.904)" x="71.2" y="206.6" width="133.9" height="6"/>
				
					<rect class="st6" transform="matrix(.9495 -.3137 .3137 .9495 -63.779 51.156)" x="75.1" y="220.8" width="104" height="6"/>
			
			
				
					<rect class="st33" transform="matrix(.9495 -.3137 .3137 .9495 -51.048 41.866)" x="60.1" y="176.6" width="89" height="6"/>
				
					<rect class="st6" transform="matrix(.9495 -.3137 .3137 .9495 -53.873 43.317)" x="63.2" y="186.1" width="89" height="6"/>
				
					<rect class="st6" transform="matrix(.9495 -.3137 .3137 .9495 -56.691 44.802)" x="66.4" y="195.6" width="89" height="6"/>
				
					<rect class="st31" transform="matrix(.9496 -.3136 .3136 .9496 -43.319 63.614)" x="158.6" y="153.5" width="35" height="26"/>
			
			
				
					<rect class="st6" transform="matrix(.9495 -.3137 .3137 .9495 -36.476 19.634)" x="39.3" y="105.2" width="7" height="36"/>
				<rect class="st6" transform="matrix(.9495 -.3138 .3138 .9495 -35.008 22.428)" x="48.7" y="102" width="7" height="36"/>
				
					<rect class="st6" transform="matrix(.9495 -.3138 .3138 .9495 -33.557 25.254)" x="58.2" y="98.9" width="7" height="36"/>
				<rect class="st6" transform="matrix(.9495 -.3138 .3138 .9495 -32.071 28.072)" x="67.7" y="95.7" width="7" height="36"/>
				
					<rect class="st6" transform="matrix(.9495 -.3137 .3137 .9495 -30.61 30.885)" x="77.2" y="92.6" width="7" height="36"/>
				
					<rect class="st6" transform="matrix(.9496 -.3134 .3134 .9496 -29.136 33.672)" x="86.7" y="89.5" width="7" height="36"/>
				
					<rect class="st27" transform="matrix(.9495 -.3138 .3138 .9495 -27.682 36.541)" x="96.2" y="86.3" width="7" height="36"/>
				
					<rect class="st27" transform="matrix(.9496 -.3134 .3134 .9496 -39.266 21.058)" x="42.4" y="124.7" width="7" height="16"/>
				
					<rect class="st27" transform="matrix(.9495 -.3137 .3137 .9495 -37.403 23.675)" x="51.4" y="118.6" width="7" height="19"/>
				
					<rect class="st27" transform="matrix(.9495 -.3138 .3138 .9495 -36.941 27.023)" x="62" y="122.3" width="7" height="12"/>
				
					<rect class="st27" transform="matrix(.9495 -.3137 .3137 .9495 -34.054 29.089)" x="69.9" y="109.4" width="7" height="22"/>
				
					<rect class="st27" transform="matrix(.9495 -.3137 .3137 .9495 -32.002 31.624)" x="78.8" y="102.3" width="7" height="26"/>
				
					<rect class="st27" transform="matrix(.9495 -.3138 .3138 .9495 -33.385 35.914)" x="91.4" y="118.7" width="7" height="6"/>
				
					<rect class="st27" transform="matrix(.9496 -.3134 .3134 .9496 -30.474 37.936)" x="99.3" y="105.8" width="7" height="16"/>
			
		
	
	
		
			
				<path class="st2" d="m172.5 149.6c-1.3-0.2-2.2-1.5-2-2.8 1.6-9.3-4.6-18.1-13.8-19.7l-86.3-15.2c-1.3-0.2-2.2-1.5-2-2.8s1.5-2.2 2.8-2l86.3 15.2c11.9 2.1 19.9 13.5 17.8 25.4-0.2 1.2-1.5 2.1-2.8 1.9z"/>
			
		
		
			
				
					<path class="st2" d="m172.5 149.6c-1.3-0.2-2.2-1.5-2-2.8 1.6-9.3-4.6-18.1-13.8-19.7l-86.3-15.2c-1.3-0.2-2.2-1.5-2-2.8s1.5-2.2 2.8-2l86.3 15.2c11.9 2.1 19.9 13.5 17.8 25.4-0.2 1.2-1.5 2.1-2.8 1.9z"/>
				
			
			
				
					<path class="st2" d="m76.7 132.7c-1.3-0.2-2.2-1.5-2-2.8 2.1-11.9 13.5-19.9 25.4-17.8l86.3 15.2c1.3 0.2 2.2 1.5 2 2.8s-1.5 2.2-2.8 2l-86.3-15.2c-9.2-1.6-18.1 4.6-19.7 13.8-0.3 1.3-1.6 2.2-2.9 2z"/>
				
			
		
		<g class="st34">
			
				
					<path class="st35" d="m115.4 137c-0.9 5.3-6 8.8-11.3 7.9l-28.8-5.1c-5.3-0.9-8.8-6-7.9-11.3l3.4-19.2c0.9-5.3 6-8.8 11.3-7.9l28.8 5.1c5.3 0.9 8.8 6 7.9 11.3l-3.4 19.2z"/>
				
			
		</g>
		<g class="st34">
			
				
					<path class="st35" d="m182.5 148.8c-0.9 5.3-6 8.8-11.3 7.9l-28.8-5.1c-5.3-0.9-8.8-6-7.9-11.3l3.4-19.2c0.9-5.3 6-8.8 11.3-7.9l28.8 5.1c5.3 0.9 8.8 6 7.9 11.3l-3.4 19.2z"/>
				
			
		</g>
		
			
				<path class="st2" d="m135 138c-1.3-0.2-2.2-1.5-2-2.8 0.7-4-2-7.8-5.9-8.5-4-0.7-7.8 2-8.5 5.9-0.2 1.3-1.5 2.2-2.8 2s-2.2-1.5-2-2.8c1.2-6.6 7.5-11 14.1-9.9 6.6 1.2 11 7.5 9.9 14.1-0.2 1.4-1.5 2.3-2.8 2z"/>
			
		
		<g class="st34">
			<path class="st35" d="m82.1 101.9c-5.3-0.9-10.2 2.3-11.1 7.6l-3.4 19.2c-0.9 5.3 2.5 10.8 7.8 11.7l14.1 2.5 6.8-38.4-14.2-2.6z"/>
		</g>
		<g class="st34">
			<path class="st35" d="m149.2 113.7c-5.3-0.9-9.4 2.4-10.3 7.7l-3.4 19.2c-0.9 5.3 1.6 10.6 6.9 11.5l14 2.5 6.8-38.4-14-2.5z"/>
		</g>
		
			
				<path class="st21" d="m177.6 120.8-28.8-5.1c-4-0.7-7.8 2-8.5 5.9l-3.4 19.2c-0.7 4 2 7.8 5.9 8.5l28.8 5.1c4 0.7 7.8-2 8.5-5.9l3.4-19.2c0.7-4-2-7.8-5.9-8.5z"/>
			
			
				<path class="st21" d="m110.5 109-28.8-5.1c-4-0.7-7.8 2-8.5 5.9l-3.4 19.2c-0.7 4 2 7.8 5.9 8.5l28.8 5.1c4 0.7 7.8-2 8.5-5.9l3.4-19.3c0.7-3.9-2-7.7-5.9-8.4z"/>
			
			
				<path class="st2" d="m111.3 104.2-28.8-5.1c-6.6-1.2-12.9 3.3-14.1 9.9l-3.4 19.2c-1.2 6.6 3.3 12.9 9.9 14.1l28.8 5.1c6.6 1.2 12.9-3.3 14.1-9.9l3.4-19.2c1.2-6.6-3.3-12.9-9.9-14.1zm1.7 32.4c-0.7 4-4.5 6.6-8.5 5.9l-28.8-5.1c-4-0.7-6.6-4.5-5.9-8.5l3.4-19.2c0.7-4 4.5-6.6 8.5-5.9l28.8 5.1c4 0.7 6.6 4.5 5.9 8.5l-3.4 19.2z"/>
			
			
				<path class="st2" d="m178.4 116-28.8-5.1c-6.6-1.2-12.9 3.3-14.1 9.9l-3.4 19.2c-1.2 6.6 3.3 12.9 9.9 14.1l28.8 5.1c6.6 1.2 12.9-3.3 14.1-9.9l3.4-19.2c1.2-6.6-3.3-12.9-9.9-14.1zm1.7 32.4c-0.7 4-4.5 6.6-8.5 5.9l-28.8-5.1c-4-0.7-6.6-4.5-5.9-8.5l3.4-19.2c0.7-4 4.5-6.6 8.5-5.9l28.8 5.1c4 0.7 6.6 4.5 5.9 8.5l-3.4 19.2z"/>
			
		
	
	
		<path class="st3" d="m292.2 486.4-45.1 20.5c-3.5 1.6-5.1 5.8-3.5 9.3l30.5 67.3c1.6 3.5 5.8 5.1 9.3 3.5l45.1-20.4c3.5-1.6 5.1-5.8 3.5-9.3l-30.5-67.3c-1.6-3.6-5.8-5.2-9.3-3.6z"/>
		
			<path class="st19" d="m275.5 579.7c1.6 3.5 5.8 5.1 9.3 3.5l45.1-20.4c3.5-1.6 5.1-5.8 3.5-9.3l-30.5-67.3c-1.6-3.5-5.8-5.1-9.3-3.5l-45.1 20.4c-3.5 1.6-5.1 5.8-3.5 9.3l30.5 67.3z"/>
			
				
					<rect class="st27" transform="matrix(.9107 -.4131 .4131 .9107 -196.45 157.52)" x="261.4" y="528.4" width="9.3" height="9.3"/>
				
					<rect class="st27" transform="matrix(.9107 -.4131 .4131 .9107 -192.9 162.29)" x="274.2" y="522.6" width="9.3" height="9.3"/>
				
					<rect class="st27" transform="matrix(.9107 -.4131 .4131 .9107 -189.36 167.06)" x="287" y="516.8" width="9.3" height="9.3"/>
				
					<rect class="st27" transform="matrix(.9107 -.4131 .4131 .9107 -185.87 171.84)" x="299.8" y="511.1" width="9.3" height="9.3"/>
				
					<rect class="st27" transform="matrix(.9106 -.4132 .4132 .9106 -201.25 161.12)" x="267.2" y="541.2" width="9.3" height="9.3"/>
				
					<rect class="st27" transform="matrix(.9107 -.4131 .4131 .9107 -197.65 165.78)" x="279.9" y="535.3" width="9.3" height="9.3"/>
				
					<rect class="st27" transform="matrix(.9107 -.413 .413 .9107 -194.1 170.51)" x="292.7" y="529.6" width="9.3" height="9.3"/>
				
					<rect class="st27" transform="matrix(.9107 -.4131 .4131 .9107 -190.56 175.32)" x="305.5" y="523.7" width="9.3" height="9.3"/>
				
					<rect class="st27" transform="matrix(.9107 -.413 .413 .9107 -205.94 164.55)" x="273" y="554" width="9.3" height="9.3"/>
				
					<rect class="st27" transform="matrix(.9107 -.4131 .4131 .9107 -202.44 169.37)" x="285.8" y="548.2" width="9.3" height="9.3"/>
				
					<rect class="st27" transform="matrix(.9107 -.4131 .4131 .9107 -198.87 174.09)" x="298.5" y="542.3" width="9.3" height="9.3"/>
				
					<rect class="st27" transform="matrix(.9107 -.4131 .4131 .9107 -195.38 178.87)" x="311.3" y="536.6" width="9.3" height="9.3"/>
				
					<rect class="st27" transform="matrix(.9106 -.4132 .4132 .9106 -210.75 168.18)" x="278.8" y="566.7" width="9.3" height="9.3"/>
				
					<rect class="st27" transform="matrix(.9106 -.4133 .4133 .9106 -207.26 173.01)" x="291.6" y="560.9" width="9.3" height="9.3"/>
				
					<rect class="st36" transform="matrix(.9107 -.4131 .4131 .9107 -201.91 180.04)" x="303.7" y="552.3" width="23.4" height="9.3"/>
			
			
				<rect class="st37" transform="matrix(.9107 -.4131 .4131 .9107 -184.8 159.96)" x="251.8" y="498" width="51.4" height="18.7"/>
			
				<rect class="st38" transform="matrix(.9107 -.413 .413 .9107 -182.39 163.1)" x="283.7" y="498.8" width="4.7" height="9.3"/>
			
				<rect class="st38" transform="matrix(.9105 -.4135 .4135 .9105 -180.28 166.48)" x="292.1" y="495" width="4.7" height="9.4"/>
			
				<rect class="st38" transform="matrix(.9108 -.4128 .4128 .9108 -187.01 156.65)" x="266.7" y="506.5" width="4.7" height="9.3"/>
			
				<rect class="st38" transform="matrix(.9107 -.413 .413 .9107 -184.79 159.98)" x="275.3" y="502.8" width="4.7" height="9.3"/>
		
	
</g>
</svg>
